<svg id="svg" version="1.1" xmlns="http://www.w3.org/2000/svg" xmlns:xlink="http://www.w3.org/1999/xlink" width="400" height="400" viewBox="0, 0, 400,400"><g id="svgg"><path id="path0" d="M282.400 10.000 C 282.400 11.333,282.222 12.400,282.000 12.400 C 281.775 12.400,281.600 13.525,281.600 14.976 C 281.600 16.393,281.420 17.664,281.200 17.800 C 280.980 17.936,280.800 19.196,280.800 20.600 C 280.800 22.004,280.620 23.264,280.400 23.400 C 280.180 23.536,280.000 24.796,280.000 26.200 C 280.000 27.604,279.820 28.864,279.600 29.000 C 279.380 29.136,279.200 30.306,279.200 31.600 C 279.200 32.894,279.020 34.064,278.800 34.200 C 278.580 34.336,278.400 34.966,278.400 35.600 C 278.400 36.234,278.220 36.864,278.000 37.000 C 277.780 37.136,277.600 37.597,277.600 38.024 C 277.600 38.451,277.442 38.800,277.249 38.800 C 277.055 38.800,276.676 39.333,276.406 39.985 C 275.787 41.480,273.345 43.591,271.901 43.880 C 271.295 44.001,270.800 44.258,270.800 44.450 C 270.800 44.643,270.440 44.800,270.000 44.800 C 269.560 44.800,269.200 44.980,269.200 45.200 C 269.200 45.429,268.000 45.600,266.400 45.600 C 264.800 45.600,263.600 45.429,263.600 45.200 C 263.600 44.980,263.186 44.800,262.680 44.800 C 261.626 44.800,259.608 43.947,259.603 43.500 C 259.601 43.335,259.368 43.200,259.083 43.200 C 258.474 43.200,255.600 40.575,255.600 40.019 C 255.600 39.809,255.150 39.186,254.600 38.636 C 254.050 38.086,253.600 37.475,253.600 37.278 C 253.600 37.080,253.060 36.354,252.400 35.663 C 251.740 34.972,251.200 34.252,251.200 34.063 C 251.200 33.874,250.660 33.154,250.000 32.463 C 249.340 31.772,248.800 31.052,248.800 30.863 C 248.800 30.674,248.260 29.954,247.600 29.263 C 246.940 28.572,246.400 27.906,246.400 27.782 C 246.400 27.658,245.861 26.981,245.202 26.278 C 244.543 25.575,244.003 24.847,244.002 24.660 C 244.001 24.474,243.460 23.817,242.800 23.200 C 242.140 22.583,241.594 21.836,241.587 21.540 C 241.569 20.841,240.201 19.200,239.636 19.200 C 239.396 19.200,239.200 19.020,239.200 18.800 C 239.200 18.048,238.322 18.399,237.200 19.600 C 236.583 20.260,235.863 20.800,235.600 20.800 C 235.337 20.800,234.617 21.340,234.000 22.000 C 233.383 22.660,232.680 23.200,232.436 23.200 C 232.192 23.200,231.428 23.740,230.737 24.400 C 230.046 25.060,229.269 25.600,229.010 25.600 C 228.751 25.600,228.117 26.050,227.600 26.600 C 227.083 27.150,226.494 27.600,226.291 27.600 C 226.087 27.600,225.417 28.140,224.800 28.800 C 224.183 29.460,223.463 30.000,223.200 30.000 C 222.937 30.000,222.217 30.540,221.600 31.200 C 220.983 31.860,220.263 32.400,220.000 32.400 C 219.737 32.400,219.017 32.940,218.400 33.600 C 217.783 34.260,216.979 34.800,216.613 34.800 C 216.152 34.800,216.017 35.023,216.175 35.522 C 216.470 36.450,215.335 37.664,212.000 39.986 C 211.230 40.523,210.510 41.072,210.400 41.207 C 210.290 41.342,209.341 42.037,208.292 42.751 C 207.110 43.555,206.490 44.231,206.663 44.525 C 207.038 45.161,208.939 47.748,209.216 48.000 C 209.337 48.110,211.101 50.450,213.135 53.200 C 215.170 55.950,217.054 58.470,217.323 58.800 C 217.592 59.130,218.250 60.030,218.786 60.800 C 219.323 61.570,219.874 62.290,220.011 62.400 C 220.439 62.744,223.399 67.349,223.867 68.400 C 227.236 75.968,223.320 84.603,215.358 87.162 C 213.606 87.725,206.835 87.568,202.200 86.857 C 200.880 86.655,198.360 86.289,196.600 86.046 C 194.840 85.802,192.140 85.416,190.600 85.187 C 189.060 84.959,186.694 84.665,185.343 84.535 L 182.886 84.297 182.661 85.449 C 182.537 86.082,182.066 89.210,181.615 92.400 C 181.164 95.590,180.604 99.550,180.370 101.200 C 180.136 102.850,179.769 105.460,179.554 107.000 C 178.910 111.617,178.371 115.271,177.991 117.600 C 176.867 124.494,176.844 124.430,180.600 124.865 C 182.854 125.127,185.056 125.431,191.800 126.414 C 193.340 126.638,195.860 126.996,197.400 127.209 C 208.070 128.683,211.522 130.556,214.078 136.257 C 217.378 143.616,214.655 150.080,205.600 156.386 C 204.830 156.923,204.110 157.469,204.000 157.600 C 203.890 157.731,203.170 158.271,202.400 158.800 C 201.630 159.329,200.910 159.863,200.800 159.988 C 200.690 160.113,197.945 162.187,194.700 164.597 C 191.455 167.007,188.800 169.102,188.800 169.253 C 188.800 169.482,202.566 188.132,204.114 190.000 C 204.388 190.330,205.050 191.230,205.586 192.000 C 206.123 192.770,206.669 193.490,206.800 193.600 C 206.931 193.710,207.471 194.430,208.000 195.200 C 208.529 195.970,209.069 196.690,209.200 196.800 C 209.331 196.910,209.875 197.630,210.408 198.400 C 210.941 199.170,211.751 200.209,212.208 200.709 L 213.038 201.617 216.019 199.384 C 217.659 198.156,219.270 196.934,219.600 196.670 C 219.930 196.405,220.830 195.744,221.600 195.200 C 222.370 194.656,223.270 193.994,223.600 193.728 C 223.930 193.462,225.370 192.385,226.800 191.335 C 228.230 190.284,229.490 189.317,229.600 189.184 C 232.568 185.618,240.519 182.412,244.547 183.156 C 254.428 184.983,257.798 191.742,255.639 205.400 C 253.984 215.869,252.800 224.876,253.029 225.248 C 253.116 225.388,254.225 225.612,255.494 225.745 C 256.762 225.878,259.060 226.175,260.600 226.404 C 262.140 226.634,264.660 226.998,266.200 227.214 C 267.740 227.429,270.170 227.779,271.600 227.990 C 273.030 228.201,275.505 228.559,277.100 228.787 C 278.695 229.014,281.260 229.380,282.800 229.600 C 284.340 229.820,286.815 230.169,288.300 230.376 C 289.785 230.583,291.380 230.867,291.845 231.008 C 292.852 231.314,293.082 230.741,293.613 226.600 C 293.931 224.121,294.312 221.444,295.006 216.800 C 295.121 216.030,295.392 214.185,295.608 212.700 C 296.540 206.283,296.938 204.093,297.478 202.400 C 298.057 200.587,300.262 196.802,300.742 196.798 C 300.884 196.797,301.540 196.296,302.200 195.685 C 306.699 191.517,319.200 192.233,319.200 196.659 C 319.200 197.324,319.860 198.295,321.200 199.600 C 322.300 200.671,323.200 201.764,323.200 202.027 C 323.200 202.291,323.530 202.797,323.933 203.153 C 324.336 203.509,325.006 204.340,325.421 205.000 C 326.496 206.707,328.478 209.287,329.300 210.047 C 329.685 210.403,330.000 210.916,330.000 211.186 C 330.000 211.457,330.540 212.183,331.200 212.800 C 331.860 213.417,332.400 214.137,332.400 214.400 C 332.400 214.663,332.940 215.383,333.600 216.000 C 334.260 216.617,334.800 217.325,334.800 217.574 C 334.800 218.248,337.479 220.800,338.187 220.800 C 338.524 220.800,338.800 220.620,338.800 220.400 C 338.800 220.180,339.006 220.000,339.257 220.000 C 339.508 220.000,340.229 219.460,340.860 218.800 C 341.491 218.140,342.203 217.600,342.443 217.600 C 342.683 217.600,343.383 217.060,344.000 216.400 C 344.617 215.740,345.337 215.200,345.600 215.200 C 345.863 215.200,346.583 214.660,347.200 214.000 C 347.817 213.340,348.537 212.800,348.800 212.800 C 349.063 212.800,349.783 212.260,350.400 211.600 C 351.017 210.940,351.725 210.400,351.975 210.400 C 352.224 210.400,352.827 210.037,353.314 209.592 C 353.801 209.148,355.370 207.939,356.800 206.905 C 358.230 205.872,359.691 204.705,360.047 204.313 C 360.403 203.921,360.916 203.600,361.186 203.600 C 361.457 203.600,362.183 203.060,362.800 202.400 C 363.417 201.740,364.137 201.200,364.400 201.200 C 364.663 201.200,365.383 200.660,366.000 200.000 C 366.617 199.340,367.337 198.800,367.600 198.800 C 367.863 198.800,368.556 198.294,369.140 197.675 C 369.723 197.057,370.515 196.433,370.900 196.288 C 372.195 195.802,371.397 193.796,368.909 191.282 C 368.409 190.777,368.000 190.214,368.000 190.032 C 368.000 189.850,367.370 189.013,366.600 188.172 C 365.830 187.331,365.200 186.497,365.200 186.318 C 365.200 186.139,364.660 185.428,364.000 184.737 C 363.340 184.046,362.800 183.278,362.800 183.029 C 362.800 182.780,362.440 182.317,362.000 182.000 C 361.560 181.683,361.200 181.193,361.200 180.912 C 361.200 180.630,361.020 180.400,360.800 180.400 C 360.580 180.400,360.400 180.170,360.400 179.888 C 360.400 179.607,360.040 179.117,359.600 178.800 C 359.160 178.483,358.797 178.038,358.792 177.812 C 358.788 177.585,358.158 176.682,357.392 175.804 C 356.627 174.927,356.000 173.982,356.000 173.704 C 356.000 173.427,355.842 173.200,355.649 173.200 C 355.455 173.200,355.073 172.660,354.800 172.000 C 354.527 171.340,354.145 170.800,353.951 170.800 C 353.758 170.800,353.600 170.260,353.600 169.600 C 353.600 168.940,353.420 168.400,353.200 168.400 C 352.967 168.400,352.800 167.067,352.800 165.200 C 352.800 163.333,352.967 162.000,353.200 162.000 C 353.420 162.000,353.600 161.728,353.600 161.395 C 353.600 160.790,354.182 159.618,355.072 158.430 C 356.616 156.370,357.730 155.200,358.147 155.200 C 358.409 155.200,358.883 154.840,359.200 154.400 C 359.539 153.930,360.235 153.600,360.888 153.600 C 361.500 153.600,362.000 153.420,362.000 153.200 C 362.000 152.958,363.725 152.800,366.376 152.800 C 368.863 152.800,370.860 152.973,371.000 153.200 C 371.136 153.420,372.371 153.600,373.744 153.600 C 375.117 153.600,376.411 153.765,376.620 153.966 C 376.829 154.168,378.080 154.431,379.400 154.551 C 380.720 154.671,383.060 154.951,384.600 155.173 C 386.140 155.396,388.750 155.738,390.400 155.934 C 392.050 156.131,393.670 156.361,394.000 156.446 C 394.440 156.559,394.633 156.199,394.724 155.100 C 394.792 154.275,395.017 153.600,395.224 153.600 C 395.431 153.600,395.600 152.340,395.600 150.800 C 395.600 149.200,395.771 148.000,396.000 148.000 C 396.229 148.000,396.400 146.800,396.400 145.200 C 396.400 143.600,396.571 142.400,396.800 142.400 C 397.025 142.400,397.200 141.275,397.200 139.824 C 397.200 138.407,397.380 137.136,397.600 137.000 C 397.820 136.864,398.000 135.593,398.000 134.176 C 398.000 132.725,398.175 131.600,398.400 131.600 C 398.628 131.600,398.800 130.411,398.800 128.833 C 398.800 127.312,398.970 126.007,399.178 125.933 C 399.385 125.860,399.682 123.055,399.837 119.700 L 400.119 113.600 397.683 113.600 C 396.343 113.600,395.136 113.420,395.000 113.200 C 394.864 112.980,393.604 112.800,392.200 112.800 C 390.796 112.800,389.536 112.620,389.400 112.400 C 389.264 112.180,387.993 112.000,386.576 112.000 C 385.125 112.000,384.000 111.825,384.000 111.600 C 384.000 111.375,382.875 111.200,381.424 111.200 C 380.007 111.200,378.736 111.020,378.600 110.800 C 378.464 110.580,377.294 110.400,376.000 110.400 C 374.706 110.400,373.536 110.220,373.400 110.000 C 373.264 109.780,372.774 109.600,372.311 109.600 C 371.276 109.600,368.400 108.367,368.400 107.923 C 368.400 107.745,368.106 107.600,367.747 107.600 C 367.099 107.600,365.600 106.173,365.600 105.557 C 365.600 105.381,365.150 104.786,364.600 104.236 C 364.050 103.686,363.600 102.879,363.600 102.442 C 363.600 102.005,363.420 101.536,363.200 101.400 C 362.980 101.264,362.800 100.544,362.800 99.800 C 362.800 99.056,362.620 98.336,362.400 98.200 C 362.180 98.064,362.000 97.603,362.000 97.176 C 362.000 96.749,362.180 96.400,362.400 96.400 C 362.620 96.400,362.800 95.680,362.800 94.800 C 362.800 93.920,362.980 93.200,363.200 93.200 C 363.420 93.200,363.600 92.840,363.600 92.400 C 363.600 91.960,363.780 91.600,364.000 91.600 C 364.220 91.600,364.400 91.360,364.400 91.066 C 364.400 90.582,369.311 85.600,369.789 85.600 C 369.994 85.600,371.253 84.614,372.216 83.700 C 372.506 83.425,372.871 83.200,373.028 83.200 C 373.185 83.200,373.829 82.660,374.460 82.000 C 375.091 81.340,375.803 80.800,376.043 80.800 C 376.283 80.800,376.983 80.260,377.600 79.600 C 378.217 78.940,378.937 78.400,379.200 78.400 C 379.463 78.400,380.183 77.860,380.800 77.200 C 381.417 76.540,382.132 76.000,382.389 76.000 C 382.647 76.000,383.108 75.775,383.415 75.500 C 384.267 74.735,384.875 74.266,386.400 73.195 C 389.931 70.714,390.195 70.159,388.600 68.564 C 388.050 68.014,387.600 67.400,387.600 67.200 C 387.600 67.000,387.150 66.386,386.600 65.836 C 386.050 65.286,385.600 64.675,385.600 64.478 C 385.600 64.280,385.060 63.554,384.400 62.863 C 383.740 62.172,383.200 61.503,383.200 61.375 C 383.200 61.247,382.975 60.914,382.700 60.635 C 382.425 60.355,381.750 59.527,381.200 58.794 C 380.650 58.061,379.795 57.051,379.300 56.549 C 378.805 56.047,378.400 55.475,378.400 55.278 C 378.400 55.080,377.860 54.354,377.200 53.663 C 376.540 52.972,376.000 52.305,376.000 52.181 C 376.000 51.888,372.420 46.763,371.743 46.086 C 371.460 45.803,370.913 45.037,370.528 44.385 C 370.143 43.733,369.686 43.200,369.514 43.200 C 369.341 43.200,369.200 43.002,369.200 42.760 C 369.200 42.519,368.660 41.817,368.000 41.200 C 367.340 40.583,366.800 39.916,366.800 39.718 C 366.800 38.462,363.956 36.289,362.989 36.806 C 362.445 37.097,362.000 37.485,362.000 37.668 C 362.000 37.850,361.730 38.000,361.400 38.000 C 361.070 38.000,360.800 38.180,360.800 38.400 C 360.800 38.620,360.570 38.800,360.288 38.800 C 360.007 38.800,359.517 39.160,359.200 39.600 C 358.883 40.040,358.459 40.400,358.259 40.400 C 358.058 40.400,357.603 40.733,357.247 41.141 C 356.891 41.548,355.970 42.205,355.200 42.600 C 354.430 42.995,353.509 43.652,353.153 44.059 C 352.797 44.467,352.329 44.800,352.112 44.800 C 351.896 44.800,351.154 45.340,350.463 46.000 C 349.772 46.660,349.052 47.200,348.863 47.200 C 348.674 47.200,347.954 47.740,347.263 48.400 C 346.572 49.060,345.826 49.600,345.604 49.600 C 345.382 49.600,345.200 49.780,345.200 50.000 C 345.200 50.220,344.970 50.400,344.688 50.400 C 344.407 50.400,343.917 50.760,343.600 51.200 C 343.283 51.640,342.833 52.000,342.600 52.000 C 342.367 52.000,341.917 52.360,341.600 52.800 C 341.283 53.240,340.703 53.600,340.312 53.600 C 339.920 53.600,339.600 53.780,339.600 54.000 C 339.600 54.220,339.240 54.400,338.800 54.400 C 338.360 54.400,338.000 54.580,338.000 54.800 C 338.000 55.037,336.541 55.200,334.424 55.200 C 332.457 55.200,330.736 55.020,330.600 54.800 C 330.464 54.580,329.913 54.400,329.376 54.400 C 328.839 54.400,328.400 54.220,328.400 54.000 C 328.400 53.780,328.112 53.600,327.760 53.600 C 326.648 53.600,322.400 48.411,322.400 47.052 C 322.400 46.719,322.220 46.336,322.000 46.200 C 321.770 46.058,321.600 43.937,321.600 41.200 C 321.600 38.463,321.770 36.342,322.000 36.200 C 322.220 36.064,322.400 34.804,322.400 33.400 C 322.400 31.996,322.580 30.736,322.800 30.600 C 323.020 30.464,323.200 29.204,323.200 27.800 C 323.200 26.396,323.380 25.136,323.600 25.000 C 323.820 24.864,324.000 23.762,324.000 22.550 C 324.000 21.339,324.162 20.044,324.360 19.674 C 324.558 19.303,324.783 17.650,324.860 16.000 L 325.000 13.000 323.000 12.876 C 321.900 12.808,320.829 12.583,320.620 12.376 C 320.411 12.169,319.106 12.000,317.720 12.000 C 316.307 12.000,315.200 11.824,315.200 11.600 C 315.200 11.371,314.000 11.200,312.400 11.200 C 310.800 11.200,309.600 11.029,309.600 10.800 C 309.600 10.576,308.493 10.400,307.080 10.400 C 305.694 10.400,304.389 10.235,304.180 10.032 C 303.971 9.830,302.630 9.566,301.200 9.445 C 292.205 8.683,288.400 8.235,288.400 7.938 C 288.400 7.752,287.050 7.600,285.400 7.600 L 282.400 7.600 282.400 10.000 M289.420 71.959 C 289.811 72.329,291.762 72.674,295.600 73.053 C 296.810 73.173,297.971 73.435,298.180 73.635 C 298.389 73.836,299.143 74.000,299.856 74.000 C 300.569 74.000,301.251 74.159,301.371 74.354 C 301.492 74.548,302.402 74.829,303.395 74.978 C 304.388 75.127,305.200 75.418,305.200 75.625 C 305.200 75.831,305.725 76.000,306.367 76.000 C 307.008 76.000,307.593 76.135,307.667 76.300 C 307.740 76.465,308.700 77.047,309.800 77.593 C 310.900 78.139,312.091 78.904,312.447 79.293 C 312.803 79.682,313.348 80.000,313.659 80.000 C 313.969 80.000,314.483 80.360,314.800 80.800 C 315.117 81.240,315.604 81.600,315.882 81.600 C 316.341 81.600,317.129 82.268,321.624 86.469 C 322.407 87.201,323.894 88.880,324.927 90.200 C 325.961 91.520,326.961 92.791,327.149 93.025 C 327.338 93.259,327.723 93.889,328.006 94.425 C 328.288 94.961,328.628 95.490,328.760 95.600 C 329.232 95.993,330.000 97.600,330.000 98.195 C 330.000 98.528,330.180 98.800,330.400 98.800 C 330.620 98.800,330.800 99.160,330.800 99.600 C 330.800 100.040,330.980 100.400,331.200 100.400 C 331.420 100.400,331.600 100.760,331.600 101.200 C 331.600 101.640,331.780 102.000,332.000 102.000 C 332.220 102.000,332.400 102.362,332.400 102.805 C 332.400 103.248,332.580 103.968,332.800 104.405 C 333.020 104.842,333.380 105.558,333.600 105.995 C 333.820 106.432,334.000 107.422,334.000 108.195 C 334.000 108.968,334.180 109.600,334.400 109.600 C 334.620 109.600,334.800 110.500,334.800 111.600 C 334.800 112.700,334.980 113.600,335.200 113.600 C 335.449 113.600,335.600 115.867,335.600 119.600 C 335.600 123.333,335.449 125.600,335.200 125.600 C 334.980 125.600,334.800 126.590,334.800 127.800 C 334.800 129.010,334.620 130.000,334.400 130.000 C 334.180 130.000,334.000 130.720,334.000 131.600 C 334.000 132.480,333.853 133.200,333.672 133.200 C 333.492 133.200,333.100 134.100,332.800 135.200 C 332.500 136.300,332.108 137.200,331.928 137.200 C 331.747 137.200,331.600 137.459,331.600 137.776 C 331.600 138.499,329.253 142.980,327.396 145.800 C 326.549 147.087,326.074 147.720,325.329 148.556 C 325.070 148.847,324.738 149.724,324.591 150.505 C 323.516 156.235,308.234 165.278,296.100 167.364 C 274.003 171.163,250.332 157.486,243.202 136.800 C 242.936 136.030,242.571 135.040,242.390 134.600 C 242.209 134.160,241.949 133.260,241.812 132.600 C 241.676 131.940,241.385 130.680,241.165 129.800 C 239.215 121.977,240.057 110.673,243.191 102.600 C 244.227 99.934,248.013 92.778,248.800 92.000 C 248.911 91.890,249.766 90.794,250.700 89.564 C 252.570 87.103,256.511 83.217,259.000 81.384 C 259.880 80.735,260.690 80.113,260.800 80.001 C 261.261 79.532,265.186 77.301,267.600 76.136 C 272.020 74.004,274.065 73.336,280.200 72.023 C 282.368 71.559,288.948 71.513,289.420 71.959 " stroke="none" fill="#1ccbeb" fill-rule="evenodd"></path><path id="path1" d="M67.600 160.200 C 67.600 161.190,67.420 162.000,67.200 162.000 C 66.980 162.000,66.800 162.709,66.800 163.576 C 66.800 164.443,66.620 165.264,66.400 165.400 C 66.180 165.536,66.000 166.447,66.000 167.424 C 66.000 168.401,65.820 169.200,65.600 169.200 C 65.380 169.200,65.200 170.100,65.200 171.200 C 65.200 172.300,65.020 173.200,64.800 173.200 C 64.580 173.200,64.400 173.999,64.400 174.976 C 64.400 175.953,64.220 176.864,64.000 177.000 C 63.780 177.136,63.600 177.923,63.600 178.749 C 63.600 183.890,58.094 188.177,54.800 185.600 C 54.250 185.170,53.615 184.814,53.388 184.809 C 53.162 184.804,52.717 184.440,52.400 184.000 C 52.083 183.560,51.543 183.200,51.200 183.200 C 50.857 183.200,50.317 182.840,50.000 182.400 C 49.683 181.960,49.143 181.600,48.800 181.600 C 48.457 181.600,47.917 181.240,47.600 180.800 C 47.283 180.360,46.869 180.000,46.680 180.000 C 46.491 180.000,44.635 178.830,42.555 177.400 C 40.476 175.970,38.615 174.800,38.420 174.800 C 38.226 174.800,38.007 174.658,37.933 174.486 C 37.663 173.847,35.250 172.400,34.457 172.400 C 33.610 172.400,30.579 174.997,27.035 178.761 C 25.916 179.950,22.231 183.697,18.847 187.088 C 12.119 193.830,12.109 193.849,14.497 196.047 C 14.884 196.403,15.200 196.922,15.200 197.200 C 15.200 197.478,15.516 197.997,15.903 198.353 C 16.289 198.709,16.860 199.495,17.170 200.100 C 17.481 200.705,17.885 201.200,18.068 201.200 C 18.250 201.200,18.400 201.436,18.400 201.725 C 18.400 202.013,18.724 202.598,19.119 203.025 C 19.515 203.451,20.602 204.925,21.534 206.300 C 22.467 207.675,23.403 208.800,23.615 208.800 C 23.827 208.800,24.000 209.160,24.000 209.600 C 24.000 210.040,24.153 210.400,24.339 210.400 C 24.526 210.400,25.003 211.120,25.400 212.000 C 25.797 212.880,26.274 213.600,26.461 213.600 C 26.647 213.600,26.800 214.644,26.800 215.920 C 26.800 218.522,25.234 221.600,23.911 221.600 C 23.520 221.600,23.200 221.780,23.200 222.000 C 23.200 222.220,22.581 222.400,21.824 222.400 C 21.067 222.400,20.336 222.580,20.200 222.800 C 20.064 223.020,19.063 223.200,17.976 223.200 C 16.889 223.200,16.000 223.380,16.000 223.600 C 16.000 223.820,15.190 224.000,14.200 224.000 C 13.210 224.000,12.400 224.157,12.400 224.349 C 12.400 224.644,9.683 225.151,7.600 225.245 C 7.270 225.260,6.460 225.432,5.800 225.628 C 5.140 225.823,4.001 226.027,3.270 226.079 C 2.538 226.132,1.852 226.315,1.746 226.487 C 1.640 226.659,1.203 226.800,0.776 226.800 C 0.022 226.800,0.000 227.215,0.000 241.400 C 0.000 254.111,0.078 256.000,0.600 256.000 C 0.930 256.000,1.200 256.143,1.200 256.318 C 1.200 256.493,1.860 256.681,2.666 256.735 C 3.472 256.789,4.326 256.954,4.564 257.101 C 5.055 257.405,7.495 257.841,12.300 258.486 C 14.115 258.730,15.600 259.080,15.600 259.264 C 15.600 259.449,16.399 259.600,17.376 259.600 C 18.353 259.600,19.264 259.780,19.400 260.000 C 19.536 260.220,20.269 260.400,21.029 260.400 C 23.148 260.400,25.203 261.721,26.203 263.726 C 26.886 265.095,27.011 269.063,26.378 269.274 C 26.146 269.351,25.911 269.724,25.856 270.101 C 25.800 270.479,25.360 271.242,24.877 271.797 C 24.395 272.352,24.000 273.035,24.000 273.315 C 24.000 273.594,23.640 274.083,23.200 274.400 C 22.760 274.717,22.400 275.207,22.400 275.488 C 22.400 275.770,22.250 276.000,22.068 276.000 C 21.885 276.000,21.481 276.495,21.170 277.100 C 20.860 277.705,20.289 278.491,19.903 278.847 C 19.516 279.203,19.200 279.623,19.200 279.782 C 19.200 280.191,16.736 283.675,15.900 284.447 C 15.515 284.803,15.200 285.348,15.200 285.659 C 15.200 285.969,14.840 286.483,14.400 286.800 C 13.960 287.117,13.600 287.697,13.600 288.088 C 13.600 288.480,13.420 288.800,13.200 288.800 C 12.181 288.800,13.223 290.071,18.900 295.750 C 22.255 299.107,25.558 302.471,26.240 303.227 C 30.313 307.736,33.569 310.400,35.009 310.400 C 35.866 310.400,36.347 310.238,36.200 310.000 C 36.064 309.780,36.233 309.600,36.576 309.600 C 36.919 309.600,37.200 309.420,37.200 309.200 C 37.200 308.980,37.444 308.800,37.742 308.800 C 38.300 308.800,42.095 306.088,42.333 305.518 C 42.407 305.343,42.772 305.200,43.145 305.200 C 43.518 305.200,44.083 304.840,44.400 304.400 C 44.717 303.960,45.162 303.600,45.388 303.600 C 45.615 303.599,46.317 303.154,46.949 302.611 C 47.581 302.067,48.436 301.516,48.849 301.384 C 49.262 301.253,49.600 300.990,49.600 300.800 C 49.600 300.610,49.938 300.347,50.351 300.216 C 50.764 300.084,51.619 299.533,52.251 298.989 C 52.883 298.446,53.625 298.001,53.900 298.000 C 54.175 298.000,54.400 297.820,54.400 297.600 C 54.400 297.380,54.749 297.200,55.176 297.200 C 55.603 297.200,56.064 297.020,56.200 296.800 C 56.336 296.580,56.887 296.400,57.424 296.400 C 57.961 296.400,58.400 296.580,58.400 296.800 C 58.400 297.020,58.760 297.200,59.200 297.200 C 59.640 297.200,60.000 297.380,60.000 297.600 C 60.000 297.820,60.193 298.000,60.429 298.000 C 61.362 298.000,62.800 300.167,62.800 301.574 C 62.800 302.028,62.980 302.400,63.200 302.400 C 63.420 302.400,63.600 303.109,63.600 303.976 C 63.600 304.843,63.780 305.664,64.000 305.800 C 64.220 305.936,64.400 306.847,64.400 307.824 C 64.400 308.801,64.580 309.600,64.800 309.600 C 65.020 309.600,65.200 310.399,65.200 311.376 C 65.200 312.353,65.380 313.264,65.600 313.400 C 65.820 313.536,66.000 314.436,66.000 315.400 C 66.000 316.364,66.180 317.264,66.400 317.400 C 66.620 317.536,66.800 318.357,66.800 319.224 C 66.800 320.091,66.980 320.800,67.200 320.800 C 67.420 320.800,67.600 321.591,67.600 322.557 C 67.600 324.910,66.877 324.800,82.400 324.800 C 97.923 324.800,97.200 324.910,97.200 322.557 C 97.200 321.591,97.380 320.800,97.600 320.800 C 97.820 320.800,98.000 319.900,98.000 318.800 C 98.000 317.700,98.180 316.800,98.400 316.800 C 98.620 316.800,98.800 316.001,98.800 315.024 C 98.800 314.047,98.980 313.136,99.200 313.000 C 99.420 312.864,99.600 312.043,99.600 311.176 C 99.600 310.309,99.780 309.600,100.000 309.600 C 100.220 309.600,100.400 308.801,100.400 307.824 C 100.400 306.847,100.580 305.936,100.800 305.800 C 101.020 305.664,101.200 304.753,101.200 303.776 C 101.200 302.799,101.358 302.000,101.550 302.000 C 101.743 302.000,102.002 301.490,102.127 300.867 C 102.420 299.402,104.481 297.200,105.560 297.200 C 106.022 297.200,106.400 297.020,106.400 296.800 C 106.400 296.580,107.030 296.400,107.800 296.400 C 108.570 296.400,109.200 296.580,109.200 296.800 C 109.200 297.020,109.470 297.200,109.800 297.200 C 110.130 297.200,110.400 297.380,110.400 297.600 C 110.400 297.820,110.625 298.000,110.900 298.001 C 111.175 298.001,112.030 298.541,112.800 299.200 C 113.570 299.859,114.425 300.399,114.700 300.399 C 114.975 300.400,115.200 300.568,115.200 300.773 C 115.200 300.978,115.566 301.262,116.013 301.404 C 116.460 301.546,117.262 302.098,117.795 302.631 C 118.328 303.164,119.002 303.600,119.294 303.600 C 119.585 303.600,120.083 303.960,120.400 304.400 C 120.717 304.840,121.297 305.200,121.688 305.200 C 122.080 305.200,122.401 305.335,122.403 305.500 C 122.404 305.665,123.079 306.248,123.903 306.796 C 124.726 307.344,125.490 307.903,125.600 308.037 C 125.710 308.172,126.473 308.598,127.296 308.985 C 128.120 309.371,128.694 309.848,128.573 310.044 C 128.452 310.240,129.000 310.400,129.791 310.400 C 131.572 310.400,131.658 310.322,145.856 295.841 C 148.307 293.341,150.530 291.223,150.796 291.135 C 151.732 290.823,151.744 287.464,150.817 284.756 C 147.670 275.557,142.673 269.181,133.768 263.000 C 129.323 259.916,123.021 255.250,121.792 254.134 C 117.412 250.156,116.000 249.440,116.000 251.200 C 116.000 251.640,115.820 252.000,115.600 252.000 C 115.380 252.000,115.200 252.540,115.200 253.200 C 115.200 253.860,115.020 254.400,114.800 254.400 C 114.580 254.400,114.400 254.634,114.400 254.920 C 114.400 255.656,113.459 257.593,113.100 257.597 C 112.935 257.599,112.800 257.870,112.800 258.200 C 112.800 258.530,112.620 258.800,112.400 258.800 C 112.180 258.800,112.000 259.070,112.000 259.400 C 112.000 259.730,111.820 260.000,111.600 260.000 C 111.380 260.000,111.200 260.255,111.200 260.567 C 111.200 260.878,111.064 261.193,110.898 261.267 C 110.731 261.340,109.831 262.369,108.898 263.552 C 107.964 264.736,107.200 265.598,107.200 265.468 C 107.200 265.338,106.494 265.944,105.631 266.816 C 104.769 267.687,103.903 268.400,103.707 268.400 C 103.511 268.400,103.002 268.715,102.575 269.100 C 101.581 269.997,98.495 271.600,97.762 271.600 C 97.453 271.600,97.199 271.735,97.197 271.900 C 97.192 272.347,95.174 273.200,94.120 273.200 C 93.614 273.200,93.200 273.380,93.200 273.600 C 93.200 273.820,92.570 274.000,91.800 274.000 C 91.030 274.000,90.400 274.180,90.400 274.400 C 90.400 274.650,88.059 274.800,84.176 274.800 C 80.753 274.800,78.042 274.656,78.151 274.480 C 78.259 274.304,77.685 274.116,76.874 274.063 C 76.063 274.009,75.340 273.793,75.267 273.582 C 75.193 273.372,74.518 273.200,73.767 273.200 C 73.015 273.200,72.400 273.020,72.400 272.800 C 72.400 272.580,72.040 272.400,71.600 272.400 C 71.160 272.400,70.800 272.220,70.800 272.000 C 70.800 271.780,70.440 271.600,70.000 271.600 C 69.560 271.600,69.200 271.420,69.200 271.200 C 69.200 270.980,68.840 270.800,68.400 270.800 C 67.960 270.800,67.600 270.620,67.600 270.400 C 67.600 270.180,67.312 270.000,66.960 270.000 C 66.609 270.000,65.817 269.460,65.200 268.800 C 64.583 268.140,63.897 267.600,63.674 267.600 C 62.979 267.600,58.567 263.007,57.587 261.262 C 57.073 260.348,56.506 259.600,56.326 259.600 C 56.147 259.600,56.000 259.330,56.000 259.000 C 56.000 258.670,55.865 258.399,55.700 258.397 C 55.341 258.393,54.400 256.456,54.400 255.720 C 54.400 255.434,54.220 255.200,54.000 255.200 C 53.780 255.200,53.600 254.840,53.600 254.400 C 53.600 253.960,53.420 253.600,53.200 253.600 C 52.980 253.600,52.800 253.060,52.800 252.400 C 52.800 251.740,52.620 251.200,52.400 251.200 C 52.180 251.200,52.000 250.606,52.000 249.880 C 52.000 249.154,51.806 248.366,51.568 248.128 C 50.954 247.514,50.928 234.912,51.540 234.300 C 51.793 234.047,52.000 233.336,52.000 232.720 C 52.000 232.104,52.180 231.600,52.400 231.600 C 52.620 231.600,52.800 231.060,52.800 230.400 C 52.800 229.740,52.980 229.200,53.200 229.200 C 53.420 229.200,53.600 228.840,53.600 228.400 C 53.600 227.960,53.791 227.600,54.024 227.600 C 54.257 227.600,54.349 227.441,54.229 227.247 C 54.109 227.053,54.459 226.236,55.006 225.430 C 55.553 224.624,56.000 223.792,56.000 223.582 C 56.000 223.372,56.150 223.200,56.332 223.200 C 56.515 223.200,56.920 222.705,57.232 222.100 C 58.137 220.347,62.026 216.000,62.690 216.000 C 62.878 216.000,63.828 215.280,64.800 214.400 C 65.772 213.520,66.800 212.800,67.084 212.800 C 67.368 212.800,67.600 212.620,67.600 212.400 C 67.600 212.180,67.960 212.000,68.400 212.000 C 68.840 212.000,69.200 211.820,69.200 211.600 C 69.200 211.380,69.560 211.200,70.000 211.200 C 70.440 211.200,70.800 211.020,70.800 210.800 C 70.800 210.580,71.149 210.400,71.576 210.400 C 72.003 210.400,72.464 210.220,72.600 210.000 C 72.736 209.780,73.362 209.600,73.990 209.600 C 74.619 209.600,75.202 209.394,75.286 209.142 C 75.385 208.844,77.379 208.600,81.015 208.442 C 87.906 208.143,87.682 208.560,84.800 201.400 C 84.004 199.422,82.856 196.055,82.447 194.500 C 82.201 193.565,81.799 192.035,81.554 191.100 C 81.308 190.165,80.967 188.950,80.796 188.400 C 80.509 187.475,80.286 186.419,79.237 181.000 C 78.233 175.821,77.200 166.116,77.200 161.873 L 77.200 158.400 72.400 158.400 L 67.600 158.400 67.600 160.200 M166.000 351.055 L 166.000 358.600 200.810 358.494 L 235.619 358.387 235.510 365.094 L 235.400 371.800 200.700 371.800 L 166.000 371.800 166.000 377.900 C 166.000 381.700,166.151 384.000,166.400 384.000 C 166.620 384.000,166.800 384.540,166.800 385.200 C 166.800 385.860,166.980 386.400,167.200 386.400 C 167.420 386.400,167.600 386.724,167.600 387.120 C 167.600 388.014,168.494 389.993,168.900 389.997 C 169.065 389.999,169.200 390.178,169.200 390.395 C 169.200 391.217,173.310 395.600,174.080 395.600 C 174.379 395.600,174.883 395.960,175.200 396.400 C 175.517 396.840,176.007 397.200,176.288 397.200 C 176.570 397.200,176.800 397.380,176.800 397.600 C 176.800 397.820,177.160 398.000,177.600 398.000 C 178.040 398.000,178.400 398.180,178.400 398.400 C 178.400 398.620,178.925 398.800,179.567 398.800 C 180.208 398.800,180.808 399.025,180.900 399.300 C 181.143 400.028,220.687 400.030,221.137 399.302 C 221.306 399.028,221.930 398.764,222.522 398.715 C 223.115 398.666,223.600 398.485,223.600 398.313 C 223.600 398.141,223.836 398.000,224.125 398.000 C 224.413 398.000,225.036 397.640,225.508 397.200 C 225.980 396.760,226.568 396.400,226.814 396.400 C 227.489 396.400,232.278 391.325,232.874 389.978 C 233.161 389.330,233.531 388.800,233.698 388.800 C 233.864 388.800,234.000 388.440,234.000 388.000 C 234.000 387.560,234.180 387.200,234.400 387.200 C 234.620 387.200,234.800 386.660,234.800 386.000 C 234.800 385.340,234.980 384.800,235.200 384.800 C 235.426 384.800,235.600 383.667,235.600 382.200 C 235.600 380.742,235.775 379.600,235.998 379.600 C 236.256 379.600,236.394 373.344,236.391 361.806 L 236.387 344.012 235.400 343.764 C 234.858 343.628,233.826 343.753,233.107 344.041 C 232.085 344.451,225.672 344.596,203.738 344.709 C 177.380 344.844,172.732 344.721,167.300 343.743 L 166.000 343.509 166.000 351.055 " stroke="none" fill="#cfdaf1" fill-rule="evenodd"></path><path id="path2" d="M75.600 0.800 C 75.600 1.020,75.322 1.200,74.982 1.200 C 74.182 1.200,72.400 2.982,72.400 3.782 C 72.400 4.122,72.220 4.400,72.000 4.400 C 71.761 4.400,71.600 5.933,71.600 8.200 C 71.600 10.467,71.761 12.000,72.000 12.000 C 72.220 12.000,72.400 12.720,72.400 13.600 C 72.400 14.480,72.580 15.200,72.800 15.200 C 73.020 15.200,73.200 15.920,73.200 16.800 C 73.200 17.680,73.380 18.400,73.600 18.400 C 73.820 18.400,74.000 19.120,74.000 20.000 C 74.000 20.880,74.140 21.600,74.311 21.600 C 74.483 21.600,74.836 22.815,75.097 24.300 C 75.548 26.863,75.840 28.181,76.829 32.100 C 77.065 33.035,77.355 34.387,77.473 35.104 C 77.592 35.821,77.849 36.506,78.044 36.627 C 78.240 36.748,78.400 37.456,78.400 38.200 C 78.400 38.944,78.580 39.664,78.800 39.800 C 79.020 39.936,79.200 40.577,79.200 41.224 C 79.200 41.871,79.380 42.400,79.600 42.400 C 79.820 42.400,80.000 43.120,80.000 44.000 C 80.000 44.880,80.180 45.600,80.400 45.600 C 80.620 45.600,80.800 46.320,80.800 47.200 C 80.800 48.080,80.980 48.800,81.200 48.800 C 81.420 48.800,81.600 49.520,81.600 50.400 C 81.600 51.280,81.780 52.000,82.000 52.000 C 82.220 52.000,82.400 52.276,82.400 52.613 C 82.400 53.296,84.624 55.664,85.915 56.354 C 86.955 56.911,92.400 56.950,92.400 56.400 C 92.400 56.180,92.676 56.000,93.013 56.000 C 94.021 56.000,96.400 53.340,96.400 52.213 C 96.400 51.656,96.580 51.200,96.800 51.200 C 97.020 51.200,97.200 50.761,97.200 50.224 C 97.200 49.687,97.020 49.136,96.800 49.000 C 96.580 48.864,96.400 47.773,96.400 46.576 C 96.400 45.379,96.220 44.400,96.000 44.400 C 95.780 44.400,95.600 43.680,95.600 42.800 C 95.600 41.920,95.420 41.200,95.200 41.200 C 94.980 41.200,94.800 40.581,94.800 39.824 C 94.800 39.067,94.620 38.336,94.400 38.200 C 94.180 38.064,94.000 37.434,94.000 36.800 C 94.000 36.166,93.820 35.536,93.600 35.400 C 93.380 35.264,93.200 34.533,93.200 33.776 C 93.200 33.019,93.020 32.400,92.800 32.400 C 92.580 32.400,92.400 31.680,92.400 30.800 C 92.400 29.920,92.243 29.200,92.052 29.200 C 91.860 29.200,91.580 27.944,91.428 26.409 C 91.277 24.874,90.984 23.514,90.777 23.386 C 90.570 23.258,90.400 22.544,90.400 21.800 C 90.400 21.056,90.220 20.336,90.000 20.200 C 89.780 20.064,89.600 19.344,89.600 18.600 C 89.600 17.856,89.420 17.136,89.200 17.000 C 88.980 16.864,88.800 16.144,88.800 15.400 C 88.800 14.656,88.620 13.936,88.400 13.800 C 88.180 13.664,88.000 13.034,88.000 12.400 C 88.000 11.766,87.820 11.136,87.600 11.000 C 87.380 10.864,87.200 10.144,87.200 9.400 C 87.200 8.656,87.020 7.936,86.800 7.800 C 86.580 7.664,86.400 7.023,86.400 6.376 C 86.400 5.729,86.220 5.200,86.000 5.200 C 85.780 5.200,85.600 4.924,85.600 4.587 C 85.600 3.923,83.486 1.709,82.080 0.900 C 81.044 0.304,75.600 0.220,75.600 0.800 M190.400 35.200 C 190.400 35.435,189.008 35.600,187.024 35.600 C 185.167 35.600,183.536 35.780,183.400 36.000 C 183.264 36.220,182.083 36.400,180.776 36.400 C 179.459 36.400,178.400 36.578,178.400 36.800 C 178.400 37.020,177.590 37.200,176.600 37.200 C 175.610 37.200,174.800 37.380,174.800 37.600 C 174.800 37.820,173.900 38.000,172.800 38.000 C 171.700 38.000,170.800 38.180,170.800 38.400 C 170.800 38.620,170.271 38.800,169.624 38.800 C 168.977 38.800,168.336 38.980,168.200 39.200 C 168.064 39.420,167.333 39.600,166.576 39.600 C 165.819 39.600,165.200 39.780,165.200 40.000 C 165.200 40.220,164.660 40.400,164.000 40.400 C 163.340 40.400,162.800 40.580,162.800 40.800 C 162.800 41.020,162.181 41.200,161.424 41.200 C 160.667 41.200,159.955 41.349,159.843 41.530 C 159.731 41.712,158.460 42.198,157.020 42.610 C 155.579 43.022,154.400 43.503,154.400 43.679 C 154.400 43.856,153.961 44.000,153.424 44.000 C 152.887 44.000,152.336 44.180,152.200 44.400 C 152.064 44.620,151.603 44.800,151.176 44.800 C 150.749 44.800,150.400 44.980,150.400 45.200 C 150.400 45.420,150.040 45.600,149.600 45.600 C 149.160 45.600,148.800 45.780,148.800 46.000 C 148.800 46.220,148.440 46.400,148.000 46.400 C 147.560 46.400,147.200 46.580,147.200 46.800 C 147.200 47.020,146.840 47.200,146.400 47.200 C 145.960 47.200,145.600 47.380,145.600 47.600 C 145.600 47.820,145.240 48.000,144.800 48.000 C 144.360 48.000,144.000 48.180,144.000 48.400 C 144.000 48.620,143.640 48.800,143.200 48.800 C 142.760 48.800,142.400 48.980,142.400 49.200 C 142.400 49.420,142.130 49.600,141.800 49.600 C 141.470 49.600,141.200 49.780,141.200 50.000 C 141.200 50.220,140.840 50.400,140.400 50.400 C 139.960 50.400,139.600 50.580,139.600 50.800 C 139.600 51.020,139.280 51.200,138.888 51.200 C 138.497 51.200,137.917 51.560,137.600 52.000 C 137.283 52.440,136.703 52.800,136.312 52.800 C 135.920 52.800,135.600 52.980,135.600 53.200 C 135.600 53.420,135.280 53.600,134.888 53.600 C 134.497 53.600,133.917 53.960,133.600 54.400 C 133.283 54.840,132.743 55.200,132.400 55.200 C 132.057 55.200,131.517 55.560,131.200 56.000 C 130.883 56.440,130.391 56.800,130.108 56.800 C 129.825 56.800,129.033 57.335,128.350 57.988 C 127.666 58.641,126.768 59.283,126.353 59.415 C 125.939 59.546,125.600 59.810,125.600 60.000 C 125.600 60.190,125.239 60.461,124.798 60.600 C 124.358 60.740,123.086 61.743,121.972 62.827 C 120.858 63.912,119.781 64.800,119.578 64.800 C 119.079 64.800,108.032 75.870,106.791 77.613 C 106.248 78.376,105.128 79.697,104.302 80.548 C 103.476 81.400,102.800 82.273,102.800 82.488 C 102.800 82.703,102.260 83.383,101.600 84.000 C 100.940 84.617,100.400 85.369,100.400 85.672 C 100.400 85.975,100.040 86.483,99.600 86.800 C 99.160 87.117,98.800 87.657,98.800 88.000 C 98.800 88.343,98.440 88.883,98.000 89.200 C 97.560 89.517,97.200 89.962,97.199 90.188 C 97.199 90.415,96.659 91.230,95.999 92.000 C 95.340 92.770,94.136 94.750,93.325 96.400 C 92.514 98.050,91.704 99.460,91.525 99.533 C 91.346 99.607,91.200 100.012,91.200 100.433 C 91.200 100.855,91.020 101.200,90.800 101.200 C 90.580 101.200,90.400 101.560,90.400 102.000 C 90.400 102.440,90.220 102.800,90.000 102.800 C 89.780 102.800,89.600 103.160,89.600 103.600 C 89.600 104.040,89.420 104.400,89.200 104.400 C 88.980 104.400,88.800 104.760,88.800 105.200 C 88.800 105.640,88.620 106.000,88.400 106.000 C 88.180 106.000,88.000 106.324,88.000 106.720 C 88.000 107.614,87.106 109.593,86.700 109.597 C 86.535 109.599,86.400 109.960,86.400 110.400 C 86.400 110.840,86.220 111.200,86.000 111.200 C 85.780 111.200,85.600 111.549,85.600 111.976 C 85.600 112.403,85.420 112.864,85.200 113.000 C 84.980 113.136,84.800 113.676,84.800 114.200 C 84.800 114.724,84.620 115.264,84.400 115.400 C 84.180 115.536,84.000 116.087,84.000 116.624 C 84.000 117.161,83.820 117.600,83.600 117.600 C 83.380 117.600,83.200 118.140,83.200 118.800 C 83.200 119.460,83.020 120.000,82.800 120.000 C 82.580 120.000,82.400 120.540,82.400 121.200 C 82.400 121.860,82.240 122.400,82.044 122.400 C 81.848 122.400,81.578 123.030,81.444 123.800 C 81.310 124.570,81.090 125.832,80.956 126.604 C 80.821 127.376,80.551 128.106,80.356 128.227 C 80.160 128.348,80.000 129.056,80.000 129.800 C 80.000 130.544,79.820 131.264,79.600 131.400 C 79.380 131.536,79.200 132.346,79.200 133.200 C 79.200 134.054,79.020 134.864,78.800 135.000 C 78.580 135.136,78.400 136.191,78.400 137.344 C 78.400 138.497,78.235 139.611,78.034 139.820 C 76.681 141.223,76.863 160.155,78.351 172.800 C 78.727 175.996,78.989 177.707,79.959 183.302 C 80.581 186.887,83.028 195.843,84.411 199.600 C 86.834 206.182,87.238 207.673,86.753 208.257 C 86.420 208.658,86.420 208.800,86.751 208.800 C 86.998 208.800,87.200 209.160,87.200 209.600 C 87.200 210.040,87.380 210.400,87.600 210.400 C 87.820 210.400,88.000 210.760,88.000 211.200 C 88.000 211.640,88.180 212.000,88.400 212.000 C 88.620 212.000,88.800 212.360,88.800 212.800 C 88.800 213.240,88.980 213.600,89.200 213.600 C 89.420 213.600,89.600 213.960,89.600 214.400 C 89.600 214.840,89.780 215.200,90.000 215.200 C 90.220 215.200,90.400 215.560,90.400 216.000 C 90.400 216.440,90.580 216.800,90.800 216.800 C 91.020 216.800,91.200 217.160,91.200 217.600 C 91.200 218.040,91.380 218.400,91.600 218.400 C 91.820 218.400,92.000 218.674,92.000 219.008 C 92.000 219.342,92.409 220.287,92.909 221.108 C 93.409 221.929,94.083 223.140,94.406 223.800 C 94.730 224.460,95.311 225.291,95.697 225.647 C 96.084 226.003,96.400 226.548,96.400 226.859 C 96.400 227.169,96.760 227.683,97.200 228.000 C 97.640 228.317,98.000 228.809,98.000 229.092 C 98.000 229.375,98.540 230.172,99.200 230.863 C 99.860 231.554,100.400 232.322,100.400 232.571 C 100.400 232.820,100.760 233.283,101.200 233.600 C 101.640 233.917,102.000 234.412,102.000 234.699 C 102.000 234.986,102.765 236.011,103.700 236.977 C 104.635 237.942,106.120 239.577,107.000 240.610 C 110.410 244.611,116.457 250.464,116.977 250.264 C 117.271 250.151,117.847 250.364,118.256 250.738 C 118.665 251.111,120.603 252.763,122.562 254.408 C 126.118 257.395,127.388 258.330,134.451 263.167 C 144.460 270.019,154.178 285.182,151.623 289.958 C 151.324 290.515,151.312 290.800,151.586 290.800 C 151.865 290.800,152.000 296.659,152.000 308.800 C 152.000 320.533,152.139 326.800,152.400 326.800 C 152.620 326.800,152.800 327.700,152.800 328.800 C 152.800 329.900,152.980 330.800,153.200 330.800 C 153.420 330.800,153.600 331.340,153.600 332.000 C 153.600 332.660,153.780 333.200,154.000 333.200 C 154.220 333.200,154.400 333.470,154.400 333.800 C 154.400 334.130,154.580 334.400,154.800 334.400 C 155.020 334.400,155.200 334.670,155.200 335.000 C 155.200 335.330,155.380 335.600,155.600 335.600 C 155.820 335.600,156.000 335.885,156.000 336.234 C 156.000 337.034,160.598 341.600,161.403 341.600 C 161.731 341.600,162.000 341.780,162.000 342.000 C 162.000 342.220,162.360 342.400,162.800 342.400 C 163.240 342.400,163.600 342.580,163.600 342.800 C 163.600 343.020,163.945 343.200,164.367 343.200 C 164.788 343.200,165.225 343.425,165.336 343.700 C 165.497 344.097,165.613 344.095,165.899 343.691 C 166.189 343.281,166.823 343.300,169.156 343.791 C 172.762 344.549,228.892 344.693,232.000 343.951 C 232.990 343.715,234.567 343.464,235.504 343.393 C 237.292 343.257,239.600 342.418,239.600 341.902 C 239.600 341.736,239.891 341.600,240.247 341.600 C 241.062 341.600,246.400 336.228,246.400 335.408 C 246.400 335.074,246.580 334.800,246.800 334.800 C 247.020 334.800,247.200 334.440,247.200 334.000 C 247.200 333.560,247.380 333.200,247.600 333.200 C 247.820 333.200,248.000 332.840,248.000 332.400 C 248.000 331.960,248.180 331.600,248.400 331.600 C 248.620 331.600,248.800 331.071,248.800 330.424 C 248.800 329.777,248.980 329.136,249.200 329.000 C 249.457 328.841,249.600 322.396,249.600 310.976 C 249.600 299.392,249.739 293.200,250.000 293.200 C 250.220 293.200,250.400 292.210,250.400 291.000 C 250.400 289.790,250.580 288.800,250.800 288.800 C 251.020 288.800,251.200 288.258,251.200 287.595 C 251.200 286.932,251.408 285.987,251.662 285.495 C 252.658 283.569,252.800 283.183,252.800 282.405 C 252.800 281.962,252.980 281.600,253.200 281.600 C 253.420 281.600,253.600 281.240,253.600 280.800 C 253.600 280.360,253.780 280.000,254.000 280.000 C 254.220 280.000,254.400 279.640,254.400 279.200 C 254.400 278.760,254.580 278.400,254.800 278.400 C 255.020 278.400,255.200 278.055,255.200 277.633 C 255.200 277.212,255.337 276.807,255.505 276.733 C 255.860 276.578,258.800 272.508,258.800 272.172 C 258.800 271.734,264.888 266.000,265.353 266.000 C 265.612 266.000,266.083 265.640,266.400 265.200 C 266.717 264.760,267.162 264.400,267.388 264.399 C 267.615 264.399,268.430 263.859,269.200 263.200 C 269.970 262.541,270.759 262.001,270.953 262.001 C 271.147 262.000,271.597 261.684,271.953 261.297 C 272.309 260.911,273.095 260.340,273.700 260.030 C 274.305 259.719,274.800 259.315,274.800 259.132 C 274.800 258.950,275.032 258.800,275.317 258.800 C 275.601 258.800,276.501 258.170,277.318 257.400 C 278.134 256.630,278.966 256.000,279.166 256.000 C 279.366 256.000,280.627 254.920,281.968 253.600 C 283.308 252.280,284.549 251.200,284.725 251.200 C 285.555 251.200,293.200 243.072,293.200 242.189 C 293.200 241.865,293.381 241.600,293.602 241.600 C 294.119 241.600,298.000 237.647,298.000 237.120 C 298.000 236.901,298.540 236.217,299.200 235.600 C 299.860 234.983,300.400 234.263,300.400 234.000 C 300.400 233.737,300.940 233.017,301.600 232.400 C 302.260 231.783,302.800 231.031,302.800 230.728 C 302.800 230.425,303.160 229.917,303.600 229.600 C 304.040 229.283,304.400 228.743,304.400 228.400 C 304.400 228.057,304.760 227.517,305.200 227.200 C 305.640 226.883,306.000 226.303,306.000 225.912 C 306.000 225.520,306.151 225.200,306.335 225.200 C 306.519 225.200,307.364 223.850,308.213 222.200 C 309.062 220.550,309.901 219.200,310.078 219.200 C 310.255 219.200,310.400 218.840,310.400 218.400 C 310.400 217.960,310.580 217.600,310.800 217.600 C 311.020 217.600,311.200 217.240,311.200 216.800 C 311.200 216.360,311.380 216.000,311.600 216.000 C 311.820 216.000,312.000 215.640,312.000 215.200 C 312.000 214.760,312.180 214.400,312.400 214.400 C 312.620 214.400,312.800 214.040,312.800 213.600 C 312.800 213.160,312.980 212.800,313.200 212.800 C 313.420 212.800,313.600 212.440,313.600 212.000 C 313.600 211.560,313.780 211.200,314.000 211.200 C 314.220 211.200,314.400 210.675,314.400 210.033 C 314.400 209.392,314.535 208.807,314.700 208.733 C 315.199 208.512,316.800 205.178,316.800 204.362 C 316.800 203.943,316.980 203.600,317.200 203.600 C 317.420 203.600,317.600 203.060,317.600 202.400 C 317.600 201.740,317.780 201.200,318.000 201.200 C 318.220 201.200,318.400 200.761,318.400 200.224 C 318.400 199.687,318.580 199.136,318.800 199.000 C 319.652 198.473,319.226 196.472,318.100 195.713 C 312.956 192.244,306.771 192.584,301.959 196.600 C 299.335 198.789,297.667 202.495,297.006 207.600 C 296.878 208.590,296.591 210.570,296.368 212.000 C 296.145 213.430,295.780 215.950,295.556 217.600 C 295.332 219.250,294.987 221.680,294.789 223.000 C 294.591 224.320,294.308 226.480,294.161 227.800 C 293.750 231.477,293.512 231.755,291.059 231.426 C 288.328 231.060,284.244 230.492,280.800 230.000 C 279.260 229.780,276.740 229.420,275.200 229.200 C 273.660 228.980,271.095 228.606,269.500 228.368 C 267.905 228.130,265.520 227.783,264.200 227.596 C 251.147 225.748,252.194 226.010,252.231 224.597 C 252.248 223.938,252.487 221.960,252.762 220.200 C 253.036 218.440,253.428 215.830,253.633 214.400 C 253.837 212.970,254.197 210.450,254.433 208.800 C 254.669 207.150,255.025 204.720,255.224 203.400 C 256.568 194.474,255.441 190.015,250.981 186.612 C 244.333 181.542,238.102 182.882,227.200 191.725 C 226.870 191.992,225.970 192.650,225.200 193.186 C 224.430 193.723,223.710 194.274,223.600 194.412 C 223.490 194.549,221.089 196.394,218.263 198.511 C 212.798 202.608,212.479 202.704,211.195 200.641 C 210.606 199.693,196.736 181.110,196.387 180.800 C 196.263 180.690,195.723 179.970,195.186 179.200 C 194.650 178.430,193.995 177.530,193.731 177.200 C 187.728 169.696,187.494 169.054,190.081 167.202 C 191.027 166.526,192.070 165.751,192.400 165.480 C 192.730 165.210,193.630 164.550,194.400 164.014 C 195.170 163.477,195.890 162.931,196.000 162.800 C 196.110 162.669,196.830 162.129,197.600 161.600 C 198.370 161.071,199.090 160.531,199.200 160.400 C 199.310 160.269,200.030 159.729,200.800 159.200 C 201.570 158.671,202.290 158.136,202.400 158.011 C 202.510 157.886,204.220 156.585,206.200 155.121 C 214.805 148.756,216.776 143.239,213.124 135.740 C 211.070 131.522,206.917 129.200,199.600 128.176 C 198.610 128.038,196.720 127.774,195.400 127.590 C 191.723 127.078,186.880 126.385,184.000 125.959 C 182.570 125.748,180.320 125.445,179.000 125.287 L 176.600 125.000 176.663 123.400 C 176.697 122.520,176.935 120.360,177.191 118.600 C 177.447 116.840,177.809 114.320,177.996 113.000 C 178.183 111.680,178.536 109.250,178.782 107.600 C 179.027 105.950,179.413 103.250,179.640 101.600 C 179.866 99.950,180.208 97.610,180.398 96.400 C 180.589 95.190,180.945 92.760,181.189 91.000 C 182.391 82.339,181.171 83.129,191.106 84.575 C 195.008 85.143,199.640 85.804,201.400 86.043 C 203.160 86.282,205.464 86.640,206.520 86.839 C 211.155 87.711,215.775 86.954,218.752 84.834 C 220.457 83.620,223.200 80.407,223.200 79.624 C 223.200 79.259,223.415 78.745,223.678 78.482 C 224.775 77.385,224.279 70.428,222.929 67.970 C 221.941 66.171,210.447 50.340,209.592 49.600 C 209.465 49.490,208.925 48.770,208.392 48.000 C 207.858 47.230,207.102 46.251,206.711 45.825 C 205.472 44.473,205.951 43.517,208.800 41.654 C 209.350 41.294,210.160 40.700,210.600 40.333 C 211.040 39.967,212.345 38.928,213.500 38.024 C 216.142 35.957,216.131 35.600,213.424 35.600 C 212.227 35.600,211.136 35.420,211.000 35.200 C 210.846 34.950,206.929 34.800,200.576 34.800 C 194.059 34.800,190.400 34.944,190.400 35.200 M18.400 39.200 C 18.400 39.420,18.124 39.600,17.787 39.600 C 17.123 39.600,14.909 41.714,14.100 43.120 C 13.505 44.154,13.427 49.046,14.000 49.400 C 14.220 49.536,14.400 49.927,14.400 50.270 C 14.400 50.952,17.095 53.600,17.790 53.600 C 18.028 53.600,18.483 53.960,18.800 54.400 C 19.117 54.840,19.615 55.200,19.906 55.200 C 20.198 55.200,20.872 55.636,21.405 56.169 C 21.938 56.702,22.740 57.254,23.187 57.396 C 23.634 57.538,24.000 57.810,24.000 58.000 C 24.000 58.190,24.381 58.467,24.848 58.615 C 25.314 58.763,26.241 59.405,26.907 60.042 C 27.573 60.679,28.322 61.200,28.571 61.200 C 28.820 61.200,29.283 61.560,29.600 62.000 C 29.917 62.440,30.409 62.800,30.692 62.800 C 30.975 62.800,31.772 63.340,32.463 64.000 C 33.154 64.660,33.922 65.200,34.171 65.200 C 34.420 65.200,34.883 65.560,35.200 66.000 C 35.517 66.440,36.009 66.800,36.292 66.800 C 36.575 66.800,37.372 67.340,38.063 68.000 C 38.754 68.660,39.522 69.200,39.771 69.200 C 40.020 69.200,40.483 69.560,40.800 70.000 C 41.117 70.440,41.509 70.800,41.670 70.800 C 41.831 70.800,43.167 71.700,44.639 72.800 C 46.111 73.900,47.461 74.800,47.639 74.800 C 47.818 74.800,48.414 75.250,48.964 75.800 C 49.514 76.350,50.202 76.800,50.494 76.800 C 50.785 76.800,51.283 77.160,51.600 77.600 C 51.917 78.040,52.497 78.400,52.888 78.400 C 53.280 78.400,53.600 78.580,53.600 78.800 C 53.600 79.020,53.960 79.200,54.400 79.200 C 54.840 79.200,55.200 79.380,55.200 79.600 C 55.200 79.831,56.467 80.000,58.200 80.000 C 59.933 80.000,61.200 79.831,61.200 79.600 C 61.200 79.380,61.478 79.200,61.818 79.200 C 62.618 79.200,64.400 77.418,64.400 76.618 C 64.400 76.278,64.580 76.000,64.800 76.000 C 65.035 76.000,65.200 74.600,65.200 72.600 C 65.200 70.600,65.035 69.200,64.800 69.200 C 64.580 69.200,64.400 68.922,64.400 68.582 C 64.400 67.920,62.673 66.000,62.078 66.000 C 61.880 66.000,61.194 65.505,60.552 64.900 C 59.911 64.295,58.894 63.545,58.293 63.232 C 57.692 62.920,57.200 62.515,57.200 62.332 C 57.200 62.150,56.945 62.000,56.633 62.000 C 56.322 62.000,56.007 61.849,55.933 61.664 C 55.760 61.228,51.715 58.400,51.263 58.400 C 51.074 58.400,50.354 57.860,49.663 57.200 C 48.972 56.540,48.175 56.000,47.892 56.000 C 47.609 56.000,47.117 55.640,46.800 55.200 C 46.483 54.760,46.020 54.400,45.771 54.400 C 45.522 54.400,44.754 53.860,44.063 53.200 C 43.372 52.540,42.579 52.000,42.300 52.000 C 42.021 52.000,41.568 51.640,41.293 51.200 C 41.018 50.760,40.613 50.400,40.393 50.400 C 40.173 50.400,39.428 49.860,38.737 49.200 C 38.046 48.540,37.278 48.000,37.029 48.000 C 36.780 48.000,36.317 47.640,36.000 47.200 C 35.683 46.760,35.185 46.400,34.894 46.400 C 34.602 46.400,33.914 45.950,33.364 45.400 C 32.814 44.850,32.205 44.400,32.010 44.400 C 31.816 44.400,31.410 44.153,31.109 43.852 C 30.808 43.550,29.940 42.984,29.180 42.593 C 28.421 42.202,27.509 41.548,27.153 41.141 C 26.797 40.733,26.212 40.400,25.853 40.400 C 25.494 40.400,25.199 40.265,25.197 40.100 C 25.195 39.935,24.709 39.575,24.117 39.300 C 22.836 38.705,18.400 38.627,18.400 39.200 M282.726 72.205 C 282.576 72.357,281.406 72.632,280.126 72.815 C 277.185 73.238,275.614 73.572,274.600 73.990 C 274.160 74.171,273.170 74.536,272.400 74.800 C 261.065 78.692,250.532 88.194,245.270 99.275 C 244.572 100.746,244.000 102.201,244.000 102.508 C 244.000 102.815,243.877 103.190,243.726 103.341 C 243.287 103.780,242.413 106.519,242.406 107.476 C 242.403 107.958,242.243 108.450,242.050 108.569 C 241.083 109.167,240.681 124.104,241.517 128.400 C 242.218 132.003,242.443 132.959,242.790 133.800 C 242.971 134.240,243.336 135.230,243.602 136.000 C 249.063 151.843,264.128 164.182,281.200 166.796 C 289.552 168.074,302.137 166.348,307.912 163.131 C 308.634 162.729,309.411 162.400,309.640 162.400 C 309.869 162.400,310.841 161.860,311.800 161.200 C 312.759 160.540,313.703 160.000,313.897 160.000 C 314.091 160.000,314.598 159.678,315.025 159.283 C 315.451 158.889,316.616 158.007,317.614 157.324 C 318.611 156.640,320.649 154.785,322.143 153.202 L 324.858 150.323 324.639 147.261 C 324.161 140.620,323.920 138.585,323.568 138.220 C 323.365 138.011,323.200 136.976,323.200 135.920 C 323.200 134.864,323.020 134.000,322.800 134.000 C 322.580 134.000,322.400 133.201,322.400 132.224 C 322.400 131.247,322.220 130.336,322.000 130.200 C 321.780 130.064,321.600 129.344,321.600 128.600 C 321.600 127.856,321.420 127.136,321.200 127.000 C 320.980 126.864,320.800 126.234,320.800 125.600 C 320.800 124.966,320.620 124.336,320.400 124.200 C 320.180 124.064,320.000 123.423,320.000 122.776 C 320.000 122.129,319.820 121.600,319.600 121.600 C 319.380 121.600,319.200 121.060,319.200 120.400 C 319.200 119.740,319.020 119.200,318.800 119.200 C 318.580 119.200,318.400 118.660,318.400 118.000 C 318.400 117.340,318.220 116.800,318.000 116.800 C 317.780 116.800,317.600 116.361,317.600 115.824 C 317.600 115.287,317.420 114.736,317.200 114.600 C 316.980 114.464,316.800 114.003,316.800 113.576 C 316.800 113.149,316.620 112.800,316.400 112.800 C 316.180 112.800,316.000 112.350,316.000 111.800 C 316.000 111.250,315.820 110.800,315.600 110.800 C 315.380 110.800,315.200 110.440,315.200 110.000 C 315.200 109.560,315.020 109.200,314.800 109.200 C 314.580 109.200,314.400 108.840,314.400 108.400 C 314.400 107.960,314.220 107.600,314.000 107.600 C 313.780 107.600,313.600 107.257,313.600 106.838 C 313.600 105.931,311.992 102.800,311.526 102.800 C 311.347 102.800,311.200 102.440,311.200 102.000 C 311.200 101.560,311.020 101.200,310.800 101.200 C 310.580 101.200,310.400 100.840,310.400 100.400 C 310.400 99.960,310.220 99.600,310.000 99.600 C 309.780 99.600,309.600 99.240,309.600 98.800 C 309.600 98.360,309.420 98.000,309.200 98.000 C 308.980 98.000,308.800 97.721,308.800 97.381 C 308.800 96.693,306.098 92.277,305.548 92.067 C 305.357 91.993,305.200 91.588,305.200 91.167 C 305.200 90.745,305.050 90.400,304.868 90.400 C 304.685 90.400,304.281 89.905,303.970 89.300 C 303.660 88.695,303.089 87.909,302.703 87.553 C 302.316 87.197,302.000 86.684,302.000 86.414 C 302.000 86.143,301.460 85.417,300.800 84.800 C 300.140 84.183,299.600 83.463,299.600 83.200 C 299.600 82.937,299.060 82.217,298.400 81.600 C 297.740 80.983,297.200 80.289,297.200 80.057 C 297.200 79.824,296.075 78.548,294.700 77.221 C 291.471 74.103,291.713 74.355,290.833 73.200 C 290.070 72.199,283.530 71.396,282.726 72.205 M47.000 105.600 C 46.864 105.820,46.144 106.000,45.400 106.000 C 44.656 106.000,43.936 106.180,43.800 106.400 C 43.664 106.620,42.944 106.800,42.200 106.800 C 41.456 106.800,40.736 106.980,40.600 107.200 C 40.464 107.420,39.763 107.600,39.043 107.600 C 38.323 107.600,37.599 107.735,37.435 107.900 C 37.271 108.065,35.936 108.412,34.469 108.672 C 31.970 109.113,30.549 109.434,26.600 110.447 C 25.720 110.673,24.413 110.955,23.696 111.073 C 22.979 111.192,22.294 111.449,22.173 111.644 C 22.052 111.840,21.344 112.000,20.600 112.000 C 19.856 112.000,19.136 112.180,19.000 112.400 C 18.864 112.620,18.144 112.800,17.400 112.800 C 16.656 112.800,15.936 112.980,15.800 113.200 C 15.664 113.420,14.944 113.600,14.200 113.600 C 13.456 113.600,12.736 113.780,12.600 114.000 C 12.464 114.220,11.744 114.400,11.000 114.400 C 10.256 114.400,9.536 114.580,9.400 114.800 C 9.264 115.020,8.771 115.200,8.305 115.200 C 6.009 115.200,3.085 117.112,1.700 119.520 C 1.104 120.556,1.020 126.000,1.600 126.000 C 1.820 126.000,2.000 126.276,2.000 126.613 C 2.000 127.621,4.660 130.000,5.787 130.000 C 6.344 130.000,6.800 130.180,6.800 130.400 C 6.800 130.620,7.610 130.800,8.600 130.800 C 9.590 130.800,10.400 130.620,10.400 130.400 C 10.400 130.180,11.120 130.000,12.000 130.000 C 12.880 130.000,13.600 129.820,13.600 129.600 C 13.600 129.380,14.320 129.200,15.200 129.200 C 16.080 129.200,16.800 129.020,16.800 128.800 C 16.800 128.580,17.520 128.400,18.400 128.400 C 19.280 128.400,20.000 128.220,20.000 128.000 C 20.000 127.780,20.720 127.600,21.600 127.600 C 22.480 127.600,23.200 127.420,23.200 127.200 C 23.200 126.980,23.830 126.800,24.600 126.800 C 25.370 126.800,26.000 126.620,26.000 126.400 C 26.000 126.180,26.720 126.000,27.600 126.000 C 28.480 126.000,29.200 125.841,29.200 125.647 C 29.200 125.453,30.549 125.168,32.197 125.013 C 33.846 124.859,35.296 124.567,35.421 124.366 C 35.545 124.165,36.256 124.000,37.000 124.000 C 37.744 124.000,38.464 123.820,38.600 123.600 C 38.736 123.380,39.467 123.200,40.224 123.200 C 40.981 123.200,41.600 123.020,41.600 122.800 C 41.600 122.580,42.320 122.400,43.200 122.400 C 44.080 122.400,44.800 122.220,44.800 122.000 C 44.800 121.780,45.520 121.600,46.400 121.600 C 47.280 121.600,48.000 121.420,48.000 121.200 C 48.000 120.980,48.720 120.800,49.600 120.800 C 50.480 120.800,51.200 120.620,51.200 120.400 C 51.200 120.180,51.740 120.000,52.400 120.000 C 53.060 120.000,53.600 119.820,53.600 119.600 C 53.600 119.380,53.889 119.200,54.242 119.200 C 54.903 119.200,56.217 117.759,57.100 116.067 C 58.211 113.937,57.249 107.600,55.814 107.600 C 55.574 107.600,55.117 107.240,54.800 106.800 C 54.483 106.360,53.903 106.000,53.512 106.000 C 53.120 106.000,52.800 105.820,52.800 105.600 C 52.800 105.372,51.608 105.200,50.024 105.200 C 48.497 105.200,47.136 105.380,47.000 105.600 M336.400 254.800 C 336.400 255.020,335.932 255.200,335.360 255.200 C 332.094 255.200,329.363 262.260,331.300 265.698 C 332.245 267.375,334.514 269.200,335.655 269.200 C 336.259 269.200,336.864 269.380,337.000 269.600 C 337.159 269.857,343.730 270.000,355.400 270.000 C 367.070 270.000,373.641 269.857,373.800 269.600 C 373.936 269.380,374.487 269.200,375.024 269.200 C 375.561 269.200,376.000 269.020,376.000 268.800 C 376.000 268.580,376.278 268.400,376.618 268.400 C 377.418 268.400,379.200 266.618,379.200 265.818 C 379.200 265.478,379.380 265.200,379.600 265.200 C 379.831 265.200,380.000 263.933,380.000 262.200 C 380.000 260.467,379.831 259.200,379.600 259.200 C 379.380 259.200,379.200 258.924,379.200 258.587 C 379.200 257.579,376.540 255.200,375.413 255.200 C 374.856 255.200,374.400 255.020,374.400 254.800 C 374.400 254.539,367.800 254.400,355.400 254.400 C 343.000 254.400,336.400 254.539,336.400 254.800 M326.200 294.025 C 325.540 294.446,324.775 294.902,324.500 295.038 C 324.225 295.174,324.000 295.536,324.000 295.843 C 324.000 296.149,323.820 296.400,323.600 296.400 C 323.380 296.400,323.200 296.760,323.200 297.200 C 323.200 297.640,323.020 298.000,322.800 298.000 C 322.571 298.000,322.400 299.200,322.400 300.800 C 322.400 302.400,322.571 303.600,322.800 303.600 C 323.020 303.600,323.200 303.960,323.200 304.400 C 323.200 304.840,323.380 305.200,323.600 305.200 C 323.820 305.200,324.002 305.425,324.004 305.700 C 324.006 305.975,324.501 306.594,325.104 307.075 C 325.707 307.556,327.003 308.681,327.984 309.575 C 328.965 310.469,329.922 311.200,330.110 311.200 C 330.298 311.200,331.329 312.100,332.400 313.200 C 333.471 314.300,334.539 315.200,334.772 315.200 C 335.005 315.200,336.115 316.100,337.239 317.200 C 338.362 318.300,339.457 319.200,339.672 319.200 C 339.887 319.200,340.724 319.875,341.531 320.700 C 342.339 321.525,343.630 322.673,344.400 323.252 C 345.170 323.830,346.383 324.865,347.096 325.552 C 347.809 326.238,348.586 326.800,348.822 326.800 C 349.059 326.800,350.129 327.700,351.200 328.800 C 352.271 329.900,353.358 330.800,353.614 330.800 C 353.870 330.800,354.583 331.340,355.200 332.000 C 355.817 332.660,356.609 333.200,356.960 333.200 C 357.312 333.200,357.600 333.380,357.600 333.600 C 357.600 333.826,358.733 334.000,360.200 334.000 C 361.667 334.000,362.800 333.826,362.800 333.600 C 362.800 333.380,363.160 333.200,363.600 333.200 C 364.040 333.200,364.400 333.064,364.400 332.898 C 364.400 332.731,364.940 332.356,365.600 332.064 C 366.331 331.741,366.800 331.233,366.800 330.766 C 366.800 330.345,366.980 330.000,367.200 330.000 C 367.420 330.000,367.600 329.316,367.600 328.480 C 367.600 327.644,367.820 326.740,368.090 326.470 C 368.477 326.083,368.477 325.815,368.090 325.195 C 367.820 324.764,367.600 324.036,367.600 323.578 C 367.600 322.760,361.927 316.800,361.148 316.800 C 360.945 316.800,359.996 316.035,359.038 315.100 C 356.958 313.069,354.009 310.577,352.056 309.200 C 351.276 308.650,349.932 307.525,349.070 306.700 C 348.209 305.875,347.346 305.200,347.154 305.200 C 346.961 305.200,345.885 304.300,344.761 303.200 C 343.638 302.100,342.581 301.200,342.412 301.200 C 342.243 301.200,341.297 300.435,340.310 299.500 C 334.600 294.093,333.075 293.188,329.746 293.229 C 328.159 293.249,327.012 293.506,326.200 294.025 M292.515 310.538 C 291.809 311.012,291.224 311.715,291.215 312.100 C 291.207 312.485,291.020 312.800,290.800 312.800 C 290.580 312.800,290.400 313.160,290.400 313.600 C 290.400 314.040,290.220 314.400,290.000 314.400 C 289.739 314.400,289.600 321.333,289.600 334.400 C 289.600 347.467,289.739 354.400,290.000 354.400 C 290.220 354.400,290.400 354.688,290.400 355.040 C 290.400 355.809,292.608 357.947,293.915 358.444 C 296.379 359.380,302.800 358.129,302.800 356.712 C 302.800 356.522,303.160 355.980,303.600 355.508 C 304.429 354.618,304.916 313.600,304.098 313.600 C 303.931 313.600,303.561 313.070,303.274 312.423 C 302.988 311.776,302.224 311.012,301.577 310.726 C 300.930 310.439,300.400 310.069,300.400 309.902 C 300.400 309.140,293.807 309.671,292.515 310.538 " stroke="none" fill="#fbb217" fill-rule="evenodd"></path><path id="path3" d="M215.474 36.150 C 215.351 36.472,214.042 37.650,212.565 38.768 C 211.089 39.885,210.011 40.800,210.171 40.800 C 211.054 40.800,216.319 36.186,215.906 35.773 C 215.792 35.659,215.598 35.829,215.474 36.150 M208.000 42.200 C 207.255 42.750,206.815 43.194,207.022 43.186 C 207.424 43.170,209.955 41.205,209.578 41.202 C 209.455 41.201,208.745 41.650,208.000 42.200 M206.013 44.656 C 206.031 45.144,207.157 46.576,207.361 46.371 C 207.455 46.277,207.187 45.775,206.766 45.256 C 206.345 44.736,206.006 44.466,206.013 44.656 M213.616 54.963 C 214.368 56.009,215.156 56.973,215.367 57.103 C 215.578 57.233,215.135 56.484,214.384 55.437 C 213.632 54.391,212.844 53.427,212.633 53.297 C 212.422 53.167,212.865 53.916,213.616 54.963 M216.575 58.932 C 217.191 59.739,217.776 60.400,217.875 60.400 C 218.153 60.400,216.421 58.060,215.909 57.744 C 215.659 57.589,215.959 58.124,216.575 58.932 M218.975 62.132 C 219.591 62.939,220.176 63.600,220.275 63.600 C 220.553 63.600,218.821 61.260,218.309 60.944 C 218.059 60.789,218.359 61.324,218.975 62.132 M221.199 65.100 C 221.722 65.815,222.213 66.400,222.289 66.400 C 222.593 66.400,221.601 64.900,220.945 64.367 C 220.513 64.016,220.610 64.296,221.199 65.100 M222.403 66.890 C 222.401 67.050,222.759 67.770,223.199 68.490 C 223.638 69.211,223.996 69.620,223.996 69.400 C 223.995 69.180,223.637 68.460,223.200 67.800 C 222.763 67.140,222.404 66.731,222.403 66.890 M224.178 74.000 C 224.182 77.903,224.207 78.038,224.535 75.906 C 224.741 74.570,224.740 72.818,224.532 71.706 C 224.224 70.065,224.175 70.385,224.178 74.000 M280.600 72.400 C 279.511 72.677,279.493 72.707,280.400 72.725 C 280.950 72.735,281.760 72.589,282.200 72.400 C 283.186 71.976,282.266 71.976,280.600 72.400 M260.893 80.389 C 259.335 81.483,257.947 82.563,257.807 82.788 C 257.607 83.113,263.313 79.198,263.967 78.562 C 264.647 77.901,263.274 78.717,260.893 80.389 M220.778 83.026 C 218.057 85.842,215.833 86.791,211.000 87.196 L 207.800 87.465 210.600 87.527 C 214.861 87.621,218.783 85.946,221.339 82.940 C 222.838 81.177,222.517 81.227,220.778 83.026 M184.600 83.980 C 185.834 84.315,188.664 84.518,188.367 84.250 C 188.275 84.168,187.120 84.000,185.800 83.877 C 184.222 83.730,183.811 83.765,184.600 83.980 M190.200 84.800 C 190.860 84.968,191.940 85.106,192.600 85.107 C 193.609 85.108,193.545 85.055,192.200 84.777 C 190.174 84.358,188.537 84.377,190.200 84.800 M254.378 85.900 L 253.000 87.400 254.500 86.022 C 255.896 84.738,256.184 84.400,255.878 84.400 C 255.812 84.400,255.137 85.075,254.378 85.900 M197.500 85.882 C 197.995 85.978,198.805 85.978,199.300 85.882 C 199.795 85.787,199.390 85.709,198.400 85.709 C 197.410 85.709,197.005 85.787,197.500 85.882 M203.100 86.682 C 203.595 86.778,204.405 86.778,204.900 86.682 C 205.395 86.587,204.990 86.509,204.000 86.509 C 203.010 86.509,202.605 86.587,203.100 86.682 M181.400 88.800 C 181.246 89.710,181.204 90.538,181.307 90.640 C 181.410 90.743,181.613 90.077,181.760 89.160 C 181.907 88.243,181.948 87.415,181.853 87.320 C 181.758 87.224,181.554 87.890,181.400 88.800 M249.757 91.330 C 247.790 94.103,246.829 95.615,247.298 95.200 C 247.797 94.759,252.027 88.694,251.915 88.581 C 251.848 88.515,250.877 89.752,249.757 91.330 M180.578 94.578 C 180.427 95.381,180.394 96.127,180.504 96.237 C 180.614 96.347,180.827 95.781,180.978 94.978 C 181.128 94.175,181.162 93.428,181.052 93.318 C 180.942 93.208,180.728 93.775,180.578 94.578 M179.876 99.210 C 179.730 99.755,179.627 100.650,179.646 101.200 C 179.671 101.918,179.784 101.757,180.049 100.627 C 180.455 98.895,180.300 97.625,179.876 99.210 M179.069 105.156 C 178.921 105.895,178.820 106.883,178.844 107.350 C 178.868 107.817,179.047 107.390,179.242 106.400 C 179.437 105.410,179.538 104.423,179.467 104.206 C 179.396 103.990,179.217 104.417,179.069 105.156 M242.046 107.067 C 242.021 107.324,241.884 107.864,241.741 108.267 C 241.540 108.836,241.594 108.897,241.979 108.542 C 242.252 108.291,242.389 107.751,242.284 107.342 C 242.179 106.934,242.072 106.810,242.046 107.067 M178.276 110.410 C 178.130 110.955,178.027 111.850,178.046 112.400 C 178.071 113.118,178.184 112.957,178.449 111.827 C 178.855 110.095,178.700 108.825,178.276 110.410 M241.022 111.822 C 240.872 112.625,240.838 113.372,240.948 113.482 C 241.058 113.592,241.272 113.025,241.422 112.222 C 241.573 111.419,241.606 110.673,241.496 110.563 C 241.386 110.453,241.173 111.019,241.022 111.822 M177.476 116.010 C 177.330 116.555,177.227 117.450,177.246 118.000 C 177.271 118.718,177.384 118.557,177.649 117.427 C 178.055 115.695,177.900 114.425,177.476 116.010 M240.542 119.800 C 240.541 121.780,240.608 122.640,240.692 121.712 C 240.776 120.784,240.777 119.164,240.695 118.112 C 240.612 117.060,240.543 117.820,240.542 119.800 M176.581 122.160 C 176.157 124.419,176.437 124.992,178.003 125.069 C 179.375 125.137,179.379 125.133,178.200 124.856 C 177.057 124.587,177.005 124.484,177.097 122.687 C 177.210 120.483,176.946 120.213,176.581 122.160 M181.600 125.588 C 181.930 125.808,182.815 125.991,183.567 125.994 C 185.360 126.002,185.041 125.775,182.800 125.450 C 181.542 125.267,181.181 125.309,181.600 125.588 M187.000 126.380 C 187.761 126.726,190.717 126.964,190.367 126.651 C 190.275 126.569,189.300 126.393,188.200 126.259 C 186.854 126.095,186.461 126.135,187.000 126.380 M241.038 127.400 C 241.370 129.384,241.602 129.704,241.594 128.167 C 241.591 127.525,241.404 126.730,241.179 126.400 C 240.886 125.970,240.846 126.254,241.038 127.400 M192.600 127.204 C 193.367 127.530,196.711 127.753,196.367 127.456 C 196.275 127.377,195.210 127.211,194.000 127.088 C 192.631 126.949,192.102 126.992,192.600 127.204 M198.200 128.004 C 198.967 128.330,202.311 128.553,201.967 128.256 C 201.875 128.177,200.810 128.011,199.600 127.888 C 198.231 127.749,197.702 127.792,198.200 128.004 M203.400 128.800 C 203.840 128.989,204.470 129.144,204.800 129.144 C 205.178 129.144,205.104 129.017,204.600 128.800 C 204.160 128.611,203.530 128.456,203.200 128.456 C 202.822 128.456,202.896 128.583,203.400 128.800 M206.000 129.397 C 206.000 129.464,206.765 129.904,207.700 130.375 C 209.267 131.163,209.322 131.168,208.400 130.436 C 207.509 129.729,206.000 129.076,206.000 129.397 M241.844 131.400 C 242.173 132.871,242.402 133.190,242.394 132.167 C 242.391 131.745,242.205 131.130,241.982 130.800 C 241.685 130.362,241.648 130.524,241.844 131.400 M210.800 132.600 C 211.546 133.370,212.247 134.000,212.357 134.000 C 212.467 134.000,211.946 133.370,211.200 132.600 C 210.454 131.830,209.753 131.200,209.643 131.200 C 209.533 131.200,210.054 131.830,210.800 132.600 M245.905 141.880 C 246.710 143.846,251.200 150.536,251.200 149.768 C 251.200 149.607,250.705 148.829,250.100 148.040 C 248.754 146.283,246.400 142.424,246.400 141.975 C 246.400 141.795,246.222 141.537,246.005 141.403 C 245.765 141.255,245.726 141.441,245.905 141.880 M214.250 145.250 C 213.917 146.917,214.240 147.240,214.600 145.600 C 214.752 144.909,214.793 144.259,214.691 144.158 C 214.589 144.056,214.391 144.547,214.250 145.250 M213.000 148.400 C 212.659 149.060,212.469 149.600,212.579 149.600 C 212.689 149.600,213.059 149.060,213.400 148.400 C 213.741 147.740,213.931 147.200,213.821 147.200 C 213.711 147.200,213.341 147.740,213.000 148.400 M210.581 151.700 L 209.000 153.400 210.700 151.819 C 212.281 150.348,212.584 150.000,212.281 150.000 C 212.216 150.000,211.451 150.765,210.581 151.700 M252.903 151.945 C 253.670 152.795,255.176 154.270,256.249 155.224 C 257.322 156.178,256.764 155.483,255.009 153.679 C 251.678 150.255,250.501 149.286,252.903 151.945 M321.600 153.778 C 320.058 155.438,319.651 156.011,320.600 155.188 C 322.378 153.646,324.588 151.223,324.352 151.075 C 324.268 151.023,323.030 152.239,321.600 153.778 M205.525 155.531 C 203.833 156.779,202.438 157.943,202.425 158.118 C 202.411 158.293,203.840 157.340,205.600 156.000 C 207.360 154.660,208.800 153.482,208.800 153.382 C 208.800 153.111,208.835 153.088,205.525 155.531 M258.540 157.103 C 258.696 157.356,259.391 157.967,260.084 158.460 C 260.777 158.954,261.217 159.150,261.060 158.897 C 260.904 158.644,260.209 158.033,259.516 157.540 C 258.823 157.046,258.383 156.850,258.540 157.103 M316.905 157.725 C 316.193 158.206,315.608 158.744,315.605 158.920 C 315.602 159.097,316.230 158.760,317.000 158.173 C 317.770 157.586,318.400 157.036,318.400 156.953 C 318.400 156.727,318.319 156.769,316.905 157.725 M77.346 163.000 C 77.347 165.200,77.414 166.049,77.495 164.887 C 77.576 163.724,77.576 161.924,77.493 160.887 C 77.411 159.849,77.345 160.800,77.346 163.000 M312.400 160.836 C 311.736 161.379,311.669 161.515,312.200 161.240 C 313.505 160.566,314.228 160.012,313.800 160.015 C 313.580 160.017,312.950 160.386,312.400 160.836 M197.305 161.725 C 196.593 162.206,196.008 162.747,196.005 162.927 C 195.999 163.288,198.235 161.790,198.612 161.181 C 198.934 160.660,198.796 160.717,197.305 161.725 M264.000 160.990 C 264.000 161.094,264.585 161.465,265.300 161.814 L 266.600 162.448 265.600 161.633 C 264.637 160.848,264.000 160.592,264.000 160.990 M270.800 164.400 C 271.130 164.613,271.670 164.788,272.000 164.788 C 272.533 164.788,272.533 164.745,272.000 164.400 C 271.670 164.187,271.130 164.012,270.800 164.012 C 270.267 164.012,270.267 164.055,270.800 164.400 M190.281 167.028 C 187.888 168.783,187.623 169.422,188.830 170.533 C 189.697 171.332,189.717 171.335,189.085 170.569 C 188.071 169.337,188.206 169.010,190.400 167.400 C 192.110 166.145,192.722 165.568,192.300 165.610 C 192.245 165.615,191.336 166.253,190.281 167.028 M275.800 166.000 C 276.240 166.189,276.870 166.344,277.200 166.344 C 277.578 166.344,277.504 166.217,277.000 166.000 C 276.560 165.811,275.930 165.656,275.600 165.656 C 275.222 165.656,275.296 165.783,275.800 166.000 M279.200 166.787 C 280.191 167.117,283.087 167.335,282.767 167.054 C 282.675 166.974,281.610 166.806,280.400 166.681 C 278.980 166.534,278.554 166.571,279.200 166.787 M294.500 167.076 C 294.885 167.176,295.515 167.176,295.900 167.076 C 296.285 166.975,295.970 166.893,295.200 166.893 C 294.430 166.893,294.115 166.975,294.500 167.076 M286.100 167.496 C 287.365 167.575,289.435 167.575,290.700 167.496 C 291.965 167.416,290.930 167.351,288.400 167.351 C 285.870 167.351,284.835 167.416,286.100 167.496 M78.120 172.800 C 78.120 174.010,78.195 174.505,78.287 173.900 C 78.378 173.295,78.378 172.305,78.287 171.700 C 78.195 171.095,78.120 171.590,78.120 172.800 M190.391 172.788 C 190.857 173.441,191.442 174.102,191.691 174.256 C 191.941 174.411,191.641 173.876,191.025 173.068 C 189.688 171.315,189.184 171.092,190.391 172.788 M192.896 176.195 C 193.393 176.962,193.944 177.592,194.120 177.595 C 194.297 177.598,193.960 176.970,193.373 176.200 C 192.000 174.400,191.732 174.397,192.896 176.195 M78.901 178.600 C 78.905 179.480,78.987 179.793,79.083 179.295 C 79.179 178.798,79.175 178.078,79.075 177.695 C 78.975 177.313,78.896 177.720,78.901 178.600 M195.268 179.352 C 195.781 180.143,196.347 180.792,196.527 180.795 C 196.899 180.801,195.382 178.559,194.749 178.169 C 194.522 178.028,194.755 178.560,195.268 179.352 M197.591 182.388 C 198.057 183.041,198.642 183.702,198.891 183.856 C 199.141 184.011,198.841 183.476,198.225 182.668 C 196.888 180.915,196.384 180.692,197.591 182.388 M79.693 183.200 C 79.693 183.970,79.775 184.285,79.876 183.900 C 79.976 183.515,79.976 182.885,79.876 182.500 C 79.775 182.115,79.693 182.430,79.693 183.200 M238.400 184.006 C 237.978 184.282,238.215 184.323,239.200 184.142 C 240.925 183.825,241.251 183.598,239.967 183.606 C 239.435 183.609,238.730 183.789,238.400 184.006 M244.433 183.743 C 244.525 183.821,245.230 184.001,246.000 184.142 C 246.985 184.323,247.222 184.282,246.800 184.006 C 246.258 183.650,244.037 183.403,244.433 183.743 M235.467 185.385 C 234.624 185.885,233.634 186.613,233.267 187.002 C 232.732 187.569,232.838 187.551,233.800 186.908 C 234.460 186.467,235.630 185.726,236.400 185.260 C 237.170 184.794,237.620 184.427,237.400 184.444 C 237.180 184.461,236.310 184.885,235.467 185.385 M248.948 185.252 C 249.800 185.701,251.329 186.908,252.347 187.934 C 253.807 189.407,253.977 189.507,253.154 188.409 C 252.070 186.962,248.651 184.387,247.856 184.418 C 247.605 184.427,248.097 184.803,248.948 185.252 M204.800 192.000 C 207.450 195.520,209.709 198.400,209.819 198.400 C 209.929 198.400,207.850 195.520,205.200 192.000 C 202.550 188.480,200.291 185.600,200.181 185.600 C 200.071 185.600,202.150 188.480,204.800 192.000 M80.406 187.033 C 80.409 187.455,80.595 188.070,80.818 188.400 C 81.115 188.838,81.152 188.676,80.956 187.800 C 80.627 186.329,80.398 186.010,80.406 187.033 M229.600 189.649 C 228.206 190.871,228.205 190.872,229.488 190.019 C 230.196 189.548,230.882 188.991,231.012 188.781 C 231.397 188.157,231.077 188.354,229.600 189.649 M254.525 191.000 C 254.834 191.660,255.212 192.716,255.363 193.347 C 255.515 193.978,255.715 194.418,255.809 194.325 C 256.099 194.034,255.239 191.402,254.584 190.582 C 254.012 189.864,254.007 189.898,254.525 191.000 M306.600 193.600 C 305.581 194.038,306.632 194.038,308.000 193.600 C 308.804 193.343,308.843 193.277,308.200 193.268 C 307.760 193.262,307.040 193.411,306.600 193.600 M313.000 193.600 C 313.440 193.789,314.160 193.938,314.600 193.932 C 315.243 193.923,315.204 193.857,314.400 193.600 C 313.032 193.162,311.981 193.162,313.000 193.600 M218.000 198.242 L 213.000 202.029 212.079 200.968 C 211.130 199.875,210.501 199.733,211.333 200.801 C 212.747 202.615,212.801 202.597,218.405 198.396 C 221.337 196.198,223.571 194.413,223.368 194.428 C 223.166 194.443,220.750 196.160,218.000 198.242 M256.124 197.000 C 256.126 198.320,256.201 198.812,256.290 198.093 C 256.379 197.374,256.377 196.294,256.286 195.693 C 256.195 195.092,256.122 195.680,256.124 197.000 M302.487 195.900 C 301.530 196.835,301.514 196.881,302.381 196.206 C 304.088 194.876,304.169 194.800,303.886 194.800 C 303.736 194.800,303.106 195.295,302.487 195.900 M299.505 198.900 C 298.961 199.615,298.401 200.650,298.262 201.200 L 298.008 202.200 298.504 201.186 C 298.777 200.629,299.417 199.594,299.927 198.886 C 301.139 197.205,300.787 197.216,299.505 198.900 M255.453 201.236 C 255.314 201.931,255.222 203.063,255.249 203.750 C 255.278 204.494,255.438 204.040,255.643 202.628 C 256.011 200.104,255.876 199.118,255.453 201.236 M297.646 202.867 C 297.621 203.234,297.496 203.864,297.370 204.267 C 297.152 204.962,297.163 204.963,297.597 204.287 C 297.848 203.896,297.973 203.266,297.873 202.887 C 297.711 202.268,297.688 202.266,297.646 202.867 M296.864 206.250 C 296.829 206.938,296.711 208.107,296.601 208.850 L 296.403 210.200 296.824 208.858 C 297.055 208.120,297.173 206.950,297.086 206.258 L 296.928 205.000 296.864 206.250 M254.656 206.484 C 254.521 206.988,254.432 208.120,254.458 209.000 C 254.497 210.320,254.559 210.180,254.813 208.200 C 255.137 205.678,255.070 204.941,254.656 206.484 M296.109 212.000 C 296.109 212.990,296.187 213.395,296.282 212.900 C 296.378 212.405,296.378 211.595,296.282 211.100 C 296.187 210.605,296.109 211.010,296.109 212.000 M253.709 214.400 C 253.709 215.390,253.787 215.795,253.882 215.300 C 253.978 214.805,253.978 213.995,253.882 213.500 C 253.787 213.005,253.709 213.410,253.709 214.400 M295.267 217.250 C 295.230 217.828,295.105 218.907,294.989 219.650 C 294.796 220.886,294.815 220.917,295.208 220.014 C 295.445 219.471,295.570 218.391,295.486 217.614 C 295.377 216.592,295.316 216.491,295.267 217.250 M252.864 219.450 C 252.829 220.138,252.711 221.308,252.601 222.050 L 252.403 223.400 252.824 222.058 C 253.055 221.320,253.173 220.150,253.086 219.458 L 252.928 218.200 252.864 219.450 M294.460 222.850 C 294.427 223.428,294.311 224.507,294.201 225.250 L 294.003 226.600 294.424 225.257 C 294.655 224.519,294.772 223.439,294.682 222.857 L 294.520 221.800 294.460 222.850 M252.161 224.797 C 252.186 225.443,252.449 225.815,252.908 225.856 C 253.357 225.896,253.402 225.851,253.032 225.735 C 252.711 225.633,252.375 225.157,252.286 224.675 C 252.151 223.954,252.130 223.976,252.161 224.797 M255.800 226.380 C 256.561 226.726,259.517 226.964,259.167 226.651 C 259.075 226.569,258.100 226.393,257.000 226.259 C 255.654 226.095,255.261 226.135,255.800 226.380 M261.400 227.204 C 262.167 227.530,265.511 227.753,265.167 227.456 C 265.075 227.377,264.010 227.211,262.800 227.088 C 261.431 226.949,260.902 226.992,261.400 227.204 M293.661 228.600 C 293.564 230.708,293.263 231.102,291.597 231.303 L 290.200 231.472 291.686 231.536 C 293.476 231.613,294.125 230.714,293.890 228.483 L 293.734 227.000 293.661 228.600 M267.000 228.004 C 267.767 228.330,271.111 228.553,270.767 228.256 C 270.675 228.177,269.610 228.011,268.400 227.888 C 267.031 227.749,266.502 227.792,267.000 228.004 M272.400 228.787 C 273.391 229.117,276.287 229.335,275.967 229.054 C 275.875 228.974,274.810 228.806,273.600 228.681 C 272.180 228.534,271.754 228.571,272.400 228.787 M278.000 229.593 C 278.988 229.916,282.289 230.135,281.967 229.856 C 281.875 229.776,280.720 229.611,279.400 229.488 C 277.909 229.349,277.379 229.389,278.000 229.593 M283.600 230.393 C 284.588 230.716,287.889 230.935,287.567 230.656 C 287.475 230.576,286.320 230.411,285.000 230.288 C 283.509 230.149,282.979 230.189,283.600 230.393 M121.233 253.700 C 121.325 253.755,121.940 254.250,122.600 254.800 L 123.800 255.800 122.830 254.700 C 122.297 254.095,121.682 253.600,121.464 253.600 C 121.245 253.600,121.142 253.645,121.233 253.700 M128.800 259.346 C 128.800 259.456,129.340 259.930,130.000 260.400 C 130.660 260.870,131.200 261.164,131.200 261.054 C 131.200 260.944,130.660 260.470,130.000 260.000 C 129.340 259.530,128.800 259.236,128.800 259.346 M141.000 268.800 C 142.306 270.120,143.465 271.200,143.575 271.200 C 143.685 271.200,142.706 270.120,141.400 268.800 C 140.094 267.480,138.935 266.400,138.825 266.400 C 138.715 266.400,139.694 267.480,141.000 268.800 M187.100 344.700 C 194.635 344.761,206.965 344.761,214.500 344.700 C 222.035 344.639,215.870 344.589,200.800 344.589 C 185.730 344.589,179.565 344.639,187.100 344.700 M184.100 371.900 C 193.505 371.960,208.895 371.960,218.300 371.900 C 227.705 371.840,220.010 371.791,201.200 371.791 C 182.390 371.791,174.695 371.840,184.100 371.900 " stroke="none" fill="#acbd72" fill-rule="evenodd"></path><path id="path4" d="M215.007 37.124 C 214.138 38.143,214.040 38.382,214.648 38.002 C 215.453 37.500,216.589 36.026,216.328 35.823 C 216.257 35.769,215.663 36.354,215.007 37.124 M212.000 39.635 L 210.600 40.848 212.095 39.924 C 212.917 39.416,213.592 38.865,213.595 38.700 C 213.602 38.264,213.538 38.302,212.000 39.635 M208.800 42.035 L 207.400 43.248 208.895 42.324 C 209.717 41.816,210.392 41.265,210.395 41.100 C 210.402 40.664,210.338 40.702,208.800 42.035 M206.446 43.745 C 206.031 44.245,214.492 56.320,216.715 58.400 C 217.285 58.933,217.311 58.933,216.946 58.400 C 216.099 57.163,209.418 48.192,209.201 48.000 C 207.960 46.904,206.472 44.195,206.857 43.732 C 207.099 43.439,207.208 43.200,207.098 43.200 C 206.988 43.200,206.694 43.445,206.446 43.745 M217.991 60.388 C 219.228 62.124,219.825 62.334,218.732 60.648 C 218.219 59.857,217.653 59.208,217.473 59.205 C 217.293 59.202,217.526 59.735,217.991 60.388 M220.391 63.588 C 221.628 65.324,222.225 65.534,221.132 63.848 C 220.619 63.057,220.053 62.408,219.873 62.405 C 219.693 62.402,219.926 62.935,220.391 63.588 M222.586 66.700 C 222.935 67.415,223.306 68.000,223.410 68.000 C 223.808 68.000,223.552 67.363,222.767 66.400 L 221.952 65.400 222.586 66.700 M224.575 74.319 C 224.561 76.330,224.671 77.378,224.835 76.800 C 225.202 75.514,225.223 72.399,224.872 71.519 C 224.722 71.145,224.589 72.405,224.575 74.319 M280.200 72.023 C 276.088 72.903,274.474 73.316,272.891 73.893 C 271.951 74.235,271.251 74.585,271.336 74.669 C 271.420 74.753,272.009 74.620,272.645 74.373 C 276.375 72.921,282.586 71.882,286.463 72.059 C 288.148 72.137,289.442 72.065,289.340 71.900 C 289.090 71.499,282.217 71.591,280.200 72.023 M264.000 78.036 C 263.336 78.579,263.269 78.715,263.800 78.440 C 265.105 77.766,265.828 77.212,265.400 77.215 C 265.180 77.217,264.550 77.586,264.000 78.036 M223.282 79.903 C 222.495 81.643,220.603 83.877,218.600 85.435 C 218.090 85.831,218.282 85.792,219.127 85.328 C 220.957 84.324,224.970 78.837,224.337 78.204 C 224.229 78.095,223.754 78.860,223.282 79.903 M261.700 79.288 C 261.205 79.527,260.800 79.879,260.800 80.070 C 260.800 80.262,261.250 80.124,261.800 79.763 C 263.267 78.802,263.216 78.557,261.700 79.288 M257.578 82.552 C 254.887 84.798,251.254 88.400,251.680 88.400 C 251.815 88.400,253.068 87.271,254.463 85.892 C 255.858 84.512,257.810 82.716,258.800 81.900 C 259.790 81.083,260.500 80.412,260.378 80.408 C 260.256 80.404,258.996 81.368,257.578 82.552 M182.755 84.028 C 182.500 84.186,182.233 85.279,182.161 86.457 C 182.028 88.669,182.169 88.491,182.587 85.923 C 182.809 84.560,182.942 84.437,184.314 84.321 L 185.800 84.195 184.509 83.968 C 183.799 83.843,183.010 83.870,182.755 84.028 M187.800 84.800 C 188.460 84.968,189.540 85.105,190.200 85.105 L 191.400 85.105 190.200 84.800 C 189.540 84.632,188.460 84.495,187.800 84.495 L 186.600 84.495 187.800 84.800 M193.400 85.600 C 194.060 85.768,195.140 85.905,195.800 85.905 L 197.000 85.905 195.800 85.600 C 195.140 85.432,194.060 85.295,193.400 85.295 L 192.200 85.295 193.400 85.600 M199.200 86.400 C 199.750 86.576,200.740 86.717,201.400 86.713 L 202.600 86.705 201.400 86.400 C 200.740 86.232,199.750 86.091,199.200 86.087 L 198.200 86.080 199.200 86.400 M204.800 87.200 C 205.350 87.376,206.340 87.517,207.000 87.513 L 208.200 87.505 207.000 87.200 C 206.340 87.032,205.350 86.891,204.800 86.887 L 203.800 86.880 204.800 87.200 M181.385 90.985 C 181.230 92.223,181.193 93.327,181.303 93.437 C 181.413 93.547,181.630 92.623,181.785 91.385 C 181.939 90.146,181.976 89.043,181.866 88.933 C 181.756 88.823,181.539 89.746,181.385 90.985 M250.744 89.500 C 249.593 90.889,249.106 91.600,249.304 91.600 C 249.414 91.600,249.986 90.970,250.573 90.200 C 251.663 88.771,251.795 88.232,250.744 89.500 M248.073 93.000 C 247.822 93.550,247.683 94.000,247.763 94.000 C 247.843 94.000,248.203 93.550,248.563 93.000 C 248.924 92.450,249.063 92.000,248.873 92.000 C 248.684 92.000,248.323 92.450,248.073 93.000 M246.614 95.435 C 246.241 96.004,246.005 96.538,246.089 96.622 C 246.173 96.707,246.558 96.241,246.944 95.588 C 247.806 94.128,247.548 94.009,246.614 95.435 M180.613 96.663 C 180.477 97.729,180.199 99.680,179.995 101.000 C 179.382 104.980,179.096 107.812,179.331 107.590 C 179.453 107.475,179.743 105.945,179.977 104.190 C 180.210 102.436,180.580 99.664,180.798 98.031 C 181.017 96.398,181.120 94.987,181.028 94.894 C 180.935 94.802,180.749 95.598,180.613 96.663 M242.977 103.043 C 242.844 103.459,242.570 104.213,242.367 104.719 C 242.165 105.224,242.006 105.944,242.014 106.319 C 242.022 106.693,242.380 106.023,242.810 104.829 C 243.239 103.634,243.507 102.574,243.405 102.471 C 243.302 102.369,243.110 102.626,242.977 103.043 M241.478 107.870 C 240.802 110.395,240.360 113.626,240.501 115.000 L 240.666 116.600 240.733 114.800 C 240.770 113.810,241.062 111.747,241.382 110.216 C 241.904 107.725,241.973 106.019,241.478 107.870 M178.854 109.080 C 178.825 109.784,178.632 111.224,178.427 112.280 C 177.906 114.961,177.526 119.272,178.011 117.000 C 178.802 113.291,179.274 109.733,179.098 108.800 C 178.935 107.938,178.901 107.977,178.854 109.080 M240.134 119.600 C 240.134 121.250,240.205 121.925,240.291 121.100 C 240.378 120.275,240.378 118.925,240.291 118.100 C 240.205 117.275,240.134 117.950,240.134 119.600 M177.068 121.454 C 176.797 124.359,176.911 124.806,177.924 124.788 C 178.554 124.777,178.553 124.749,177.916 124.377 C 177.339 124.041,177.270 123.573,177.474 121.389 C 177.607 119.965,177.626 118.800,177.516 118.800 C 177.406 118.800,177.204 119.994,177.068 121.454 M240.428 125.233 C 240.444 126.425,240.610 127.760,240.797 128.200 C 241.003 128.684,241.049 127.892,240.913 126.200 C 240.639 122.787,240.390 122.290,240.428 125.233 M179.233 124.944 C 179.325 125.024,180.480 125.195,181.800 125.324 C 183.324 125.474,183.908 125.431,183.400 125.208 C 182.643 124.875,178.879 124.637,179.233 124.944 M184.833 125.744 C 184.925 125.824,186.080 125.995,187.400 126.124 C 188.924 126.274,189.508 126.231,189.000 126.008 C 188.243 125.675,184.479 125.437,184.833 125.744 M190.433 126.550 C 190.525 126.632,191.680 126.804,193.000 126.931 C 194.555 127.080,195.048 127.042,194.400 126.821 C 193.414 126.484,190.110 126.259,190.433 126.550 M197.800 127.623 C 198.680 127.805,199.760 127.952,200.200 127.949 L 201.000 127.944 200.200 127.600 C 199.760 127.411,198.680 127.264,197.800 127.274 L 196.200 127.292 197.800 127.623 M202.033 128.143 C 202.125 128.221,202.830 128.401,203.600 128.542 C 204.585 128.723,204.822 128.682,204.400 128.406 C 203.858 128.050,201.637 127.803,202.033 128.143 M206.200 129.291 C 207.879 129.889,210.518 131.750,211.728 133.188 C 212.289 133.854,212.869 134.400,213.016 134.400 C 213.163 134.400,212.699 133.725,211.985 132.900 C 210.406 131.076,206.939 128.788,205.819 128.832 C 205.200 128.855,205.293 128.968,206.200 129.291 M241.206 130.033 C 241.209 130.565,241.389 131.270,241.606 131.600 C 241.882 132.022,241.923 131.785,241.742 130.800 C 241.425 129.075,241.198 128.749,241.206 130.033 M242.028 133.476 C 242.013 133.958,242.180 134.464,242.400 134.600 C 242.873 134.892,242.873 134.501,242.400 133.400 C 242.069 132.629,242.055 132.631,242.028 133.476 M213.234 134.867 C 213.215 135.014,213.565 135.985,214.011 137.025 C 214.580 138.352,214.837 139.884,214.873 142.158 C 214.915 144.801,214.978 145.105,215.215 143.805 C 215.599 141.695,215.138 138.624,214.104 136.400 C 213.644 135.410,213.252 134.720,213.234 134.867 M243.619 137.821 C 243.592 138.417,245.654 142.479,245.873 142.261 C 245.972 142.161,245.510 141.027,244.846 139.740 C 244.182 138.453,243.630 137.590,243.619 137.821 M246.013 142.909 C 245.998 143.259,248.023 146.400,248.263 146.400 C 248.485 146.400,247.382 144.356,246.643 143.400 C 246.303 142.960,246.020 142.739,246.013 142.909 M213.832 147.507 C 213.334 148.735,212.070 150.378,210.232 152.185 C 208.675 153.716,207.951 154.583,208.625 154.111 C 211.297 152.239,215.119 147.141,214.723 145.977 C 214.656 145.777,214.255 146.466,213.832 147.507 M249.568 148.400 C 252.654 152.883,263.051 162.000,265.078 162.000 C 265.251 162.000,263.954 161.032,262.196 159.848 C 257.639 156.780,254.099 153.564,250.963 149.646 C 249.123 147.348,248.397 146.699,249.568 148.400 M323.270 152.526 C 322.791 153.035,322.400 153.588,322.400 153.754 C 322.400 154.069,323.003 153.502,323.949 152.298 C 324.743 151.289,324.289 151.440,323.270 152.526 M319.800 155.866 C 316.004 159.249,309.399 163.205,305.247 164.584 C 304.093 164.968,303.222 165.355,303.312 165.445 C 304.103 166.236,314.183 160.979,318.200 157.681 C 320.662 155.659,322.080 154.347,321.942 154.217 C 321.864 154.144,320.900 154.886,319.800 155.866 M205.600 156.035 L 204.200 157.248 205.695 156.324 C 206.517 155.816,207.192 155.265,207.195 155.100 C 207.202 154.664,207.138 154.702,205.600 156.035 M201.208 159.226 C 198.266 161.481,196.564 163.127,199.000 161.360 C 199.880 160.722,200.832 159.981,201.115 159.714 C 201.398 159.447,202.163 158.913,202.815 158.528 C 203.467 158.143,204.000 157.686,204.000 157.514 C 204.000 157.073,204.074 157.028,201.208 159.226 M265.600 162.192 C 265.600 162.416,270.621 164.803,271.057 164.787 C 271.246 164.781,270.360 164.258,269.088 163.626 C 266.401 162.290,265.600 161.961,265.600 162.192 M192.700 165.650 C 190.335 167.434,188.400 169.058,188.400 169.259 C 188.400 169.571,192.833 175.599,201.520 187.100 C 202.725 188.695,203.798 190.000,203.904 190.000 C 204.011 190.000,203.921 189.775,203.704 189.500 C 201.350 186.513,188.800 169.463,188.800 169.252 C 188.800 169.097,190.690 167.565,193.000 165.847 C 196.655 163.129,197.533 162.391,197.100 162.403 C 197.045 162.404,195.065 163.865,192.700 165.650 M272.638 165.370 C 273.319 165.667,274.489 166.019,275.238 166.153 C 276.117 166.311,275.820 166.118,274.400 165.610 C 271.895 164.713,270.781 164.562,272.638 165.370 M300.800 166.000 C 300.005 166.514,301.004 166.514,302.200 166.000 L 303.000 165.656 302.200 165.634 C 301.760 165.622,301.130 165.787,300.800 166.000 M277.600 166.800 C 278.150 166.976,278.960 167.120,279.400 167.120 C 280.033 167.120,279.992 167.054,279.200 166.800 C 278.650 166.624,277.840 166.480,277.400 166.480 C 276.767 166.480,276.808 166.546,277.600 166.800 M297.400 166.800 C 296.322 167.074,296.302 167.106,297.200 167.113 C 297.750 167.117,298.650 166.976,299.200 166.800 C 300.544 166.369,299.092 166.369,297.400 166.800 M282.223 167.653 C 282.870 167.792,285.650 167.905,288.400 167.905 C 291.150 167.905,293.930 167.792,294.577 167.653 C 295.225 167.514,292.445 167.400,288.400 167.400 C 284.355 167.400,281.575 167.514,282.223 167.653 M240.400 183.167 C 239.792 183.342,240.733 183.461,242.800 183.471 C 245.541 183.485,245.890 183.426,244.600 183.167 C 242.687 182.783,241.736 182.783,240.400 183.167 M235.374 185.117 C 233.394 186.220,229.610 188.973,229.605 189.314 C 229.602 189.487,230.545 188.903,231.700 188.017 C 232.855 187.130,234.475 186.040,235.300 185.594 C 236.125 185.149,236.800 184.697,236.800 184.592 C 236.800 184.329,236.764 184.342,235.374 185.117 M250.256 185.723 C 251.377 186.486,252.920 188.110,253.900 189.559 C 254.835 190.942,255.599 191.831,255.598 191.536 C 255.593 190.131,250.073 184.400,248.725 184.400 C 248.498 184.400,249.187 184.995,250.256 185.723 M227.585 190.829 L 226.200 192.058 227.700 190.981 C 229.026 190.030,229.457 189.600,229.085 189.600 C 229.022 189.600,228.347 190.153,227.585 190.829 M205.027 191.800 C 206.400 193.600,206.668 193.603,205.504 191.805 C 205.007 191.038,204.456 190.408,204.280 190.405 C 204.103 190.402,204.440 191.030,205.027 191.800 M224.505 192.925 C 223.793 193.406,223.208 193.944,223.205 194.120 C 223.202 194.297,223.830 193.960,224.600 193.373 C 225.370 192.786,226.000 192.236,226.000 192.153 C 226.000 191.927,225.919 191.969,224.505 192.925 M306.940 193.106 C 306.687 193.268,308.335 193.400,310.602 193.400 C 312.870 193.400,314.517 193.268,314.263 193.106 C 314.008 192.944,312.360 192.812,310.600 192.812 C 308.840 192.812,307.193 192.944,306.940 193.106 M207.427 195.000 C 208.800 196.800,209.068 196.803,207.904 195.005 C 207.407 194.238,206.856 193.608,206.680 193.605 C 206.503 193.602,206.840 194.230,207.427 195.000 M304.300 194.120 C 303.695 194.359,303.200 194.704,303.200 194.887 C 303.200 195.163,305.398 194.258,305.967 193.749 C 306.259 193.488,305.436 193.671,304.300 194.120 M315.233 193.749 C 315.325 193.831,316.030 194.202,316.800 194.573 L 318.200 195.248 317.200 194.433 C 316.414 193.792,314.562 193.148,315.233 193.749 M221.305 195.325 C 220.593 195.806,220.008 196.344,220.005 196.520 C 220.002 196.697,220.630 196.360,221.400 195.773 C 222.170 195.186,222.800 194.636,222.800 194.553 C 222.800 194.327,222.719 194.369,221.305 195.325 M301.374 196.316 C 300.700 196.912,299.726 198.030,299.209 198.800 C 298.160 200.365,298.269 200.273,300.989 197.300 C 303.112 194.978,303.232 194.674,301.374 196.316 M209.904 198.356 C 210.507 199.212,211.058 199.859,211.129 199.794 C 211.331 199.609,209.435 196.810,209.104 196.805 C 208.941 196.802,209.301 197.500,209.904 198.356 M217.500 198.214 C 216.455 198.980,215.600 199.707,215.600 199.829 C 215.600 200.087,219.174 197.566,219.457 197.109 C 219.774 196.595,219.481 196.760,217.500 198.214 M255.846 201.147 C 255.689 202.327,255.646 203.379,255.750 203.483 C 256.017 203.750,256.522 200.164,256.307 199.525 C 256.211 199.236,256.003 199.966,255.846 201.147 M211.600 200.294 C 211.600 201.647,213.111 202.038,214.254 200.981 L 215.400 199.922 214.208 200.791 L 213.016 201.660 212.308 200.786 C 211.919 200.305,211.600 200.083,211.600 200.294 M297.073 203.353 C 296.923 203.745,296.811 204.366,296.825 204.733 C 296.842 205.175,296.981 205.074,297.237 204.434 C 297.449 203.903,297.561 203.282,297.485 203.054 C 297.409 202.827,297.224 202.961,297.073 203.353 M255.047 206.537 C 254.878 207.602,254.832 208.565,254.944 208.678 C 255.236 208.969,255.705 206.224,255.514 205.340 C 255.427 204.933,255.216 205.471,255.047 206.537 M296.182 208.182 C 296.029 209.202,295.994 210.127,296.104 210.237 C 296.214 210.347,296.429 209.602,296.582 208.582 C 296.735 207.561,296.770 206.637,296.660 206.527 C 296.550 206.417,296.335 207.161,296.182 208.182 M254.218 212.218 C 254.065 213.239,254.030 214.163,254.140 214.273 C 254.250 214.383,254.465 213.639,254.618 212.618 C 254.771 211.598,254.806 210.673,254.696 210.563 C 254.586 210.453,254.371 211.198,254.218 212.218 M295.482 213.150 C 295.327 213.893,295.220 214.972,295.244 215.550 C 295.273 216.242,295.410 215.987,295.647 214.800 C 295.845 213.810,295.952 212.730,295.885 212.400 C 295.819 212.070,295.638 212.407,295.482 213.150 M253.418 217.818 C 253.265 218.839,253.230 219.763,253.340 219.873 C 253.450 219.983,253.665 219.239,253.818 218.218 C 253.971 217.198,254.006 216.273,253.896 216.163 C 253.786 216.053,253.571 216.798,253.418 217.818 M294.656 218.484 C 294.521 218.988,294.430 220.030,294.452 220.800 C 294.486 221.934,294.562 221.789,294.852 220.039 C 295.220 217.825,295.096 216.843,294.656 218.484 M252.650 222.850 C 252.315 224.525,252.335 225.600,252.700 225.598 C 252.865 225.597,253.051 224.697,253.113 223.598 C 253.240 221.338,253.023 220.986,252.650 222.850 M293.882 223.950 C 293.727 224.693,293.620 225.773,293.644 226.350 C 293.673 227.042,293.810 226.787,294.047 225.600 C 294.245 224.610,294.352 223.530,294.285 223.200 C 294.219 222.870,294.038 223.207,293.882 223.950 M253.633 225.744 C 253.725 225.824,254.880 225.995,256.200 226.124 C 257.724 226.274,258.308 226.231,257.800 226.008 C 257.043 225.675,253.279 225.437,253.633 225.744 M259.233 226.550 C 259.325 226.632,260.480 226.804,261.800 226.931 C 263.355 227.080,263.848 227.042,263.200 226.821 C 262.214 226.484,258.910 226.259,259.233 226.550 M266.600 227.623 C 267.480 227.805,268.560 227.952,269.000 227.949 L 269.800 227.944 269.000 227.600 C 268.560 227.411,267.480 227.264,266.600 227.274 L 265.000 227.292 266.600 227.623 M272.200 228.423 C 274.337 228.865,275.804 228.850,274.400 228.400 C 273.850 228.224,272.770 228.083,272.000 228.086 L 270.600 228.092 272.200 228.423 M276.033 228.950 C 276.125 229.032,277.280 229.204,278.600 229.331 C 280.155 229.480,280.648 229.442,280.000 229.221 C 279.014 228.884,275.710 228.659,276.033 228.950 M293.029 229.829 C 292.881 230.415,292.851 230.984,292.961 231.094 C 293.071 231.204,293.281 230.815,293.429 230.229 C 293.576 229.642,293.606 229.073,293.496 228.963 C 293.386 228.853,293.176 229.242,293.029 229.829 M283.400 230.023 C 285.537 230.465,287.004 230.450,285.600 230.000 C 285.050 229.824,283.970 229.683,283.200 229.686 L 281.800 229.692 283.400 230.023 M288.600 230.800 C 290.397 231.257,292.064 231.257,291.000 230.800 C 290.560 230.611,289.570 230.465,288.800 230.475 L 287.400 230.495 288.600 230.800 M166.700 358.675 C 166.070 358.840,166.000 359.499,166.000 365.229 L 166.000 371.600 200.810 371.600 L 235.620 371.600 235.510 365.100 L 235.400 358.600 201.400 358.545 C 182.700 358.515,167.085 358.573,166.700 358.675 " stroke="none" fill="#8cbc88" fill-rule="evenodd"></path></g></svg>