<svg id="svg" version="1.1" xmlns="http://www.w3.org/2000/svg" xmlns:xlink="http://www.w3.org/1999/xlink" width="400" height="400" viewBox="0, 0, 400,400"><g id="svgg"><path id="path0" d="M98.383 69.047 C 96.795 70.561,86.683 80.586,75.913 91.324 L 56.331 110.849 63.666 118.168 C 84.719 139.179,85.659 141.372,83.800 165.200 C 82.746 178.715,83.021 182.515,85.394 187.200 C 87.725 191.802,86.965 192.020,94.389 184.623 C 102.232 176.809,103.539 176.140,107.178 178.083 L 108.831 178.965 113.871 173.925 L 118.912 168.885 118.017 166.727 C 116.489 163.040,116.958 162.127,124.073 154.948 L 130.071 148.896 129.126 147.348 C 127.773 145.129,126.652 142.577,126.164 140.600 C 125.491 137.874,125.845 130.953,126.777 128.600 C 131.393 116.958,143.037 111.167,154.062 115.030 C 155.678 115.596,157.270 116.139,157.600 116.236 C 158.020 116.359,158.613 115.551,159.576 113.544 C 162.947 106.515,170.974 101.476,178.800 101.476 C 182.406 101.476,184.515 101.917,187.414 103.275 C 188.950 103.995,190.391 102.551,189.313 101.373 C 188.628 100.625,184.016 96.553,182.055 94.965 C 181.536 94.544,180.906 94.009,180.655 93.775 C 180.405 93.542,179.615 93.093,178.900 92.778 C 178.185 92.463,177.600 92.069,177.600 91.902 C 177.600 91.736,177.150 91.600,176.600 91.600 C 176.050 91.600,175.600 91.420,175.600 91.200 C 175.600 90.980,175.006 90.800,174.280 90.800 C 173.554 90.800,172.767 90.607,172.530 90.370 C 172.011 89.851,166.010 90.106,162.800 90.783 C 161.590 91.038,159.790 91.344,158.800 91.462 C 157.810 91.581,156.829 91.840,156.620 92.039 C 156.411 92.237,155.477 92.400,154.544 92.400 C 153.611 92.400,152.736 92.580,152.600 92.800 C 152.464 93.020,151.474 93.200,150.400 93.200 C 149.326 93.200,148.336 93.380,148.200 93.600 C 148.058 93.830,145.937 94.000,143.200 94.000 C 140.463 94.000,138.342 93.830,138.200 93.600 C 138.064 93.380,137.153 93.200,136.176 93.200 C 135.199 93.200,134.400 93.020,134.400 92.800 C 134.400 92.580,133.948 92.400,133.395 92.400 C 132.842 92.400,131.987 92.192,131.495 91.938 C 129.618 90.967,129.193 90.800,128.605 90.800 C 128.272 90.800,128.000 90.620,128.000 90.400 C 128.000 90.180,127.773 90.000,127.497 90.000 C 125.991 90.000,121.128 86.002,114.161 79.037 C 109.959 74.837,105.340 70.251,103.896 68.847 L 101.272 66.294 98.383 69.047 M174.600 115.276 C 170.780 117.284,168.876 121.684,170.004 125.898 C 170.481 127.682,172.962 130.254,210.028 167.400 C 245.125 202.573,249.573 207.168,249.816 208.500 C 250.690 213.303,246.493 217.527,242.068 216.298 C 240.864 215.963,232.753 208.033,197.000 172.235 C 147.709 122.884,151.797 126.640,147.385 126.640 C 140.551 126.640,136.122 133.552,139.056 139.639 C 139.424 140.400,158.493 159.771,182.356 183.622 C 225.882 227.125,227.600 228.871,227.600 229.595 C 227.600 229.824,227.814 230.353,228.075 230.772 C 229.085 232.388,226.237 237.600,224.345 237.600 C 223.961 237.600,223.536 237.780,223.400 238.000 C 223.036 238.589,221.211 238.435,219.499 237.670 C 218.499 237.224,207.693 226.720,187.099 206.176 C 170.105 189.223,155.750 175.150,155.200 174.902 C 151.722 173.339,150.313 173.346,146.803 174.946 C 143.967 176.238,141.214 180.953,141.754 183.594 C 141.889 184.257,142.110 185.340,142.245 186.000 C 142.380 186.660,142.650 187.200,142.845 187.200 C 143.040 187.200,143.200 187.442,143.200 187.737 C 143.200 188.032,157.199 202.297,174.308 219.437 C 208.136 253.325,206.964 251.990,205.942 255.449 C 205.402 257.278,203.328 259.600,202.234 259.600 C 201.911 259.600,201.536 259.780,201.400 260.000 C 201.264 260.220,200.634 260.400,200.000 260.400 C 199.366 260.400,198.736 260.220,198.600 260.000 C 198.464 259.780,197.974 259.600,197.510 259.600 C 196.937 259.600,191.948 254.903,181.895 244.900 C 173.769 236.815,166.914 230.020,166.661 229.800 C 165.324 228.639,160.738 227.929,160.200 228.800 C 160.064 229.020,159.648 229.200,159.276 229.200 C 155.835 229.203,153.373 236.431,155.570 240.086 C 156.477 241.596,213.322 298.697,216.996 301.789 C 219.547 303.936,222.168 305.302,225.840 306.399 C 227.661 306.942,235.492 306.772,245.800 305.964 C 255.800 305.179,258.200 305.262,264.600 306.608 C 265.785 306.857,267.141 307.358,268.495 308.047 C 268.877 308.241,269.462 308.400,269.795 308.400 C 270.128 308.400,270.400 308.536,270.400 308.702 C 270.400 308.869,270.985 309.258,271.700 309.567 C 275.030 311.006,275.623 311.525,288.163 323.986 L 298.011 333.772 301.444 330.386 C 307.544 324.369,336.562 295.101,339.763 291.737 L 342.867 288.474 339.634 285.210 L 336.400 281.945 336.400 279.032 C 336.400 276.352,336.494 276.020,337.580 274.884 L 338.760 273.649 333.691 268.625 C 329.044 264.018,327.600 262.922,327.600 264.000 C 327.600 264.220,327.251 264.400,326.824 264.400 C 326.397 264.400,325.936 264.580,325.800 264.800 C 324.820 266.386,318.400 263.124,318.400 261.040 C 318.400 260.688,318.220 260.400,318.000 260.400 C 317.780 260.400,317.600 260.051,317.600 259.624 C 317.600 259.197,317.420 258.736,317.200 258.600 C 316.980 258.464,316.800 257.924,316.800 257.400 C 316.800 256.876,316.640 256.348,316.444 256.227 C 315.053 255.367,314.766 243.191,315.995 237.200 C 316.244 235.990,316.544 234.190,316.662 233.200 C 316.781 232.210,317.040 231.229,317.239 231.020 C 317.437 230.811,317.600 229.866,317.600 228.920 C 317.600 227.974,317.756 227.200,317.946 227.200 C 318.269 227.200,318.878 222.642,318.855 220.400 C 318.808 215.914,316.717 210.436,313.587 206.600 C 311.072 203.517,311.050 203.488,310.013 202.000 C 309.477 201.230,308.751 200.330,308.400 200.000 C 308.049 199.670,307.329 198.770,306.800 198.000 C 306.271 197.230,305.551 196.330,305.200 196.000 C 304.849 195.670,304.129 194.770,303.600 194.000 C 303.071 193.230,302.351 192.330,302.000 192.000 C 301.649 191.670,300.929 190.770,300.400 190.000 C 299.871 189.230,299.331 188.510,299.200 188.400 C 299.069 188.290,297.715 186.580,296.192 184.600 C 294.669 182.620,293.319 180.910,293.192 180.800 C 293.065 180.690,292.529 179.970,292.000 179.200 C 291.471 178.430,290.751 177.530,290.400 177.200 C 290.049 176.870,289.329 175.970,288.800 175.200 C 288.271 174.430,287.557 173.530,287.215 173.200 C 286.872 172.870,286.101 171.941,285.502 171.135 C 284.902 170.329,284.184 169.429,283.906 169.135 C 283.628 168.841,282.332 167.160,281.027 165.400 C 278.521 162.020,276.926 160.401,276.100 160.400 C 275.825 160.400,275.600 160.220,275.600 160.000 C 275.600 159.780,274.970 159.600,274.200 159.600 C 273.430 159.600,272.800 159.420,272.800 159.200 C 272.800 158.980,271.990 158.800,271.000 158.800 C 270.010 158.800,269.200 158.980,269.200 159.200 C 269.200 159.420,268.660 159.600,268.000 159.600 C 267.340 159.600,266.800 159.780,266.800 160.000 C 266.800 160.220,266.518 160.400,266.174 160.400 C 263.737 160.400,260.400 165.816,260.400 169.773 C 260.400 173.748,260.665 174.320,265.024 179.770 C 271.559 187.941,272.146 190.275,268.566 193.855 C 265.266 197.155,261.257 196.037,257.613 190.800 C 257.077 190.030,256.527 189.310,256.391 189.200 C 256.255 189.090,255.182 187.740,254.007 186.200 C 250.784 181.977,184.972 116.300,182.916 115.256 C 180.637 114.098,176.825 114.107,174.600 115.276 " stroke="none" fill="#fbcea5" fill-rule="evenodd"></path><path id="path1" d="M56.800 9.200 C 56.800 9.420,56.526 9.600,56.192 9.600 C 55.857 9.600,52.524 12.705,48.785 16.500 C 45.046 20.295,41.674 23.713,41.293 24.095 C 39.081 26.314,24.753 40.636,24.033 41.348 C 22.985 42.384,8.683 56.713,7.700 57.711 C 7.315 58.102,5.425 59.943,3.500 61.801 L 0.000 65.181 -0.000 69.030 L -0.000 72.879 4.300 77.203 C 6.665 79.580,10.426 83.387,12.657 85.663 C 14.889 87.938,18.759 91.811,21.257 94.268 C 23.756 96.725,27.443 100.415,29.450 102.468 C 31.458 104.521,35.148 108.204,37.650 110.653 C 40.153 113.102,44.025 116.972,46.255 119.253 C 48.485 121.534,52.175 125.226,54.455 127.457 C 60.187 133.068,67.600 140.780,67.600 141.132 C 67.600 141.292,67.960 141.683,68.400 142.000 C 68.840 142.317,69.200 142.897,69.200 143.288 C 69.200 143.680,69.380 144.000,69.600 144.000 C 69.820 144.000,70.000 144.349,70.000 144.776 C 70.000 145.203,70.180 145.664,70.400 145.800 C 70.620 145.936,70.800 146.667,70.800 147.424 C 70.800 148.181,70.980 148.800,71.200 148.800 C 71.450 148.800,71.600 151.200,71.600 155.200 C 71.600 159.200,71.450 161.600,71.200 161.600 C 70.953 161.600,70.800 163.659,70.800 166.976 C 70.800 170.129,70.635 172.455,70.400 172.600 C 70.173 172.740,70.000 174.737,70.000 177.224 C 70.000 179.875,70.158 181.600,70.400 181.600 C 70.622 181.600,70.800 182.667,70.800 184.000 C 70.800 185.333,70.978 186.400,71.200 186.400 C 71.420 186.400,71.600 186.940,71.600 187.600 C 71.600 188.260,71.780 188.800,72.000 188.800 C 72.220 188.800,72.400 189.124,72.400 189.520 C 72.400 190.414,73.294 192.393,73.700 192.397 C 73.865 192.399,74.000 192.760,74.000 193.200 C 74.000 193.640,74.180 194.000,74.400 194.000 C 74.620 194.000,74.800 194.338,74.800 194.751 C 74.800 195.164,75.070 195.726,75.400 196.000 C 75.730 196.274,76.000 196.719,76.000 196.990 C 76.000 197.260,76.542 198.048,77.203 198.741 L 78.407 200.000 77.203 201.259 C 76.542 201.952,76.000 202.740,76.000 203.010 C 76.000 203.281,75.730 203.726,75.400 204.000 C 75.070 204.274,74.800 204.836,74.800 205.249 C 74.800 205.662,74.620 206.000,74.400 206.000 C 74.180 206.000,74.000 206.360,74.000 206.800 C 74.000 207.240,73.820 207.600,73.600 207.600 C 73.380 207.600,73.200 207.960,73.200 208.400 C 73.200 208.840,73.020 209.200,72.800 209.200 C 72.580 209.200,72.400 209.650,72.400 210.200 C 72.400 210.750,72.220 211.200,72.000 211.200 C 71.780 211.200,71.600 211.740,71.600 212.400 C 71.600 213.060,71.420 213.600,71.200 213.600 C 70.978 213.600,70.800 214.667,70.800 216.000 C 70.800 217.333,70.622 218.400,70.400 218.400 C 70.158 218.400,70.000 220.125,70.000 222.776 C 70.000 225.263,70.173 227.260,70.400 227.400 C 70.635 227.545,70.800 229.871,70.800 233.024 C 70.800 236.341,70.953 238.400,71.200 238.400 C 71.450 238.400,71.600 240.800,71.600 244.800 C 71.600 248.800,71.450 251.200,71.200 251.200 C 70.980 251.200,70.800 251.819,70.800 252.576 C 70.800 253.333,70.620 254.064,70.400 254.200 C 70.180 254.336,70.000 254.797,70.000 255.224 C 70.000 255.651,69.820 256.000,69.600 256.000 C 69.380 256.000,69.200 256.320,69.200 256.712 C 69.200 257.103,68.840 257.683,68.400 258.000 C 67.960 258.317,67.600 258.708,67.600 258.868 C 67.600 259.210,60.399 266.706,54.470 272.538 C 52.198 274.772,48.508 278.465,46.270 280.745 C 44.031 283.024,40.158 286.894,37.662 289.345 C 35.166 291.795,31.476 295.479,29.462 297.532 C 27.448 299.585,23.756 303.275,21.257 305.732 C 18.759 308.189,14.889 312.060,12.657 314.334 C 10.426 316.608,6.665 320.426,4.300 322.818 L -0.000 327.168 -0.000 330.978 L 0.000 334.789 3.446 338.148 C 7.852 342.444,7.109 341.706,16.177 350.800 C 20.454 355.090,24.140 358.780,24.368 359.000 C 24.595 359.220,28.289 362.910,32.577 367.200 C 36.864 371.490,40.735 375.360,41.179 375.800 C 41.623 376.240,45.046 379.705,48.785 383.500 C 52.524 387.295,55.857 390.400,56.192 390.400 C 56.526 390.400,56.800 390.580,56.800 390.800 C 56.800 391.660,62.122 391.250,63.354 390.295 C 63.989 389.803,79.216 374.730,97.192 356.800 C 131.803 322.278,131.677 322.400,132.603 322.400 C 132.931 322.400,133.200 322.220,133.200 322.000 C 133.200 321.780,133.560 321.600,134.000 321.600 C 134.440 321.600,134.800 321.420,134.800 321.200 C 134.800 320.980,135.160 320.800,135.600 320.800 C 136.040 320.800,136.400 320.620,136.400 320.400 C 136.400 320.180,137.019 320.000,137.776 320.000 C 138.533 320.000,139.264 319.820,139.400 319.600 C 139.723 319.078,147.077 319.078,147.400 319.600 C 147.536 319.820,148.436 320.000,149.400 320.000 C 150.364 320.000,151.264 320.180,151.400 320.400 C 151.536 320.620,152.436 320.800,153.400 320.800 C 154.364 320.800,155.264 320.980,155.400 321.200 C 155.536 321.420,156.411 321.600,157.344 321.600 C 158.277 321.600,159.211 321.763,159.420 321.963 C 160.259 322.765,173.600 323.575,173.600 322.824 C 173.600 322.582,174.459 322.400,175.600 322.400 C 176.700 322.400,177.600 322.220,177.600 322.000 C 177.600 321.780,178.140 321.600,178.800 321.600 C 179.460 321.600,180.000 321.420,180.000 321.200 C 180.000 320.980,180.540 320.800,181.200 320.800 C 181.860 320.800,182.400 320.620,182.400 320.400 C 182.400 320.180,182.760 320.000,183.200 320.000 C 183.640 320.000,184.000 319.820,184.000 319.600 C 184.000 319.380,184.360 319.200,184.800 319.200 C 185.240 319.200,185.600 319.020,185.600 318.800 C 185.600 318.580,185.836 318.400,186.125 318.400 C 186.413 318.400,187.036 318.040,187.508 317.600 C 187.980 317.160,188.527 316.800,188.724 316.800 C 189.097 316.800,190.965 315.044,192.000 313.722 C 192.330 313.300,193.230 312.518,194.000 311.984 C 194.770 311.450,195.959 310.470,196.642 309.807 C 197.326 309.143,198.725 307.835,199.752 306.901 L 201.620 305.201 203.310 306.806 C 210.045 313.198,211.420 314.400,212.005 314.400 C 212.222 314.400,212.400 314.580,212.400 314.800 C 212.400 315.020,212.670 315.200,213.000 315.200 C 213.330 315.200,213.600 315.380,213.600 315.600 C 213.600 315.820,213.960 316.000,214.400 316.000 C 214.840 316.000,215.200 316.180,215.200 316.400 C 215.200 316.620,215.549 316.800,215.976 316.800 C 216.403 316.800,216.864 316.980,217.000 317.200 C 217.136 317.420,217.687 317.600,218.224 317.600 C 218.761 317.600,219.200 317.780,219.200 318.000 C 219.200 318.220,219.740 318.400,220.400 318.400 C 221.060 318.400,221.600 318.580,221.600 318.800 C 221.600 319.020,222.500 319.200,223.600 319.200 C 224.700 319.200,225.600 319.380,225.600 319.600 C 225.600 319.848,227.792 320.000,231.376 320.000 C 234.796 320.000,237.254 319.837,237.400 319.600 C 237.545 319.366,239.863 319.200,243.000 319.200 C 246.137 319.200,248.455 319.034,248.600 318.800 C 248.928 318.269,259.072 318.269,259.400 318.800 C 259.536 319.020,260.089 319.200,260.629 319.200 C 261.169 319.200,261.923 319.362,262.305 319.560 C 262.687 319.757,263.855 320.342,264.900 320.859 C 265.945 321.376,266.800 321.934,266.800 322.099 C 266.800 322.265,267.031 322.400,267.314 322.400 C 267.966 322.400,270.194 324.297,273.339 327.530 C 274.693 328.921,278.387 332.634,281.549 335.781 C 284.711 338.928,288.360 342.559,289.658 343.851 C 290.956 345.143,294.800 348.990,298.201 352.400 C 301.601 355.810,305.291 359.500,306.400 360.600 C 307.509 361.700,311.199 365.390,314.600 368.800 C 318.001 372.210,321.693 375.900,322.805 377.000 C 323.916 378.100,327.331 381.565,330.392 384.700 C 333.453 387.835,336.237 390.400,336.579 390.400 C 336.920 390.400,337.200 390.580,337.200 390.800 C 337.200 391.659,342.521 391.250,343.770 390.295 C 345.493 388.976,398.479 336.060,399.297 334.840 C 400.539 332.989,400.297 327.045,398.934 325.897 C 398.348 325.404,396.413 323.511,394.634 321.692 C 392.855 319.873,389.188 316.183,386.486 313.492 C 383.783 310.801,380.093 307.114,378.286 305.299 C 376.478 303.483,372.750 299.748,370.000 296.998 C 367.250 294.248,363.605 290.603,361.901 288.899 C 360.197 287.195,356.575 283.550,353.853 280.800 C 347.800 274.685,346.145 273.200,345.387 273.200 C 345.064 273.200,344.800 273.020,344.800 272.800 C 344.800 272.230,340.325 272.327,339.584 272.913 C 335.620 276.047,336.070 280.722,340.783 285.389 C 342.332 286.923,343.600 288.364,343.600 288.591 C 343.600 288.817,333.353 299.248,320.829 311.771 L 298.058 334.539 287.529 324.080 C 274.553 311.190,272.393 309.609,264.400 307.154 C 260.947 306.093,249.643 305.911,242.224 306.797 C 236.574 307.472,226.964 307.489,225.000 306.827 C 219.105 304.843,220.422 306.025,186.890 272.605 C 165.779 251.565,155.322 240.870,154.790 239.774 C 152.147 234.332,156.276 228.000,162.469 228.000 C 165.607 228.000,166.219 228.508,182.000 244.211 C 198.037 260.168,197.965 260.111,201.150 259.411 C 204.698 258.632,206.824 254.027,204.945 251.189 C 204.585 250.645,190.378 236.250,173.374 219.200 C 142.474 188.218,142.456 188.199,141.785 185.850 C 139.631 178.307,146.311 171.628,153.850 173.787 C 156.198 174.459,156.223 174.483,187.400 205.587 C 204.560 222.706,218.993 236.913,219.474 237.157 C 222.335 238.609,226.352 236.747,227.207 233.573 C 228.197 229.898,231.036 233.019,183.230 185.236 C 136.926 138.954,137.995 140.111,137.677 135.902 C 137.118 128.476,146.032 123.188,152.400 127.168 C 152.730 127.374,172.800 147.340,197.000 171.536 C 244.067 218.596,241.446 216.178,244.853 215.678 C 246.502 215.436,249.036 212.902,249.278 211.253 C 249.774 207.873,251.806 210.098,209.601 167.800 C 167.413 125.519,169.069 127.333,169.069 123.400 C 169.069 116.517,176.540 111.757,182.935 114.566 C 185.316 115.612,252.058 182.532,255.973 187.800 C 259.842 193.004,260.724 193.949,262.349 194.633 C 265.825 196.095,268.955 194.227,270.110 190.000 C 270.498 188.577,268.262 184.225,265.999 182.000 C 257.456 173.602,257.916 162.633,266.952 159.252 C 273.372 156.850,276.803 158.620,284.202 168.148 C 286.401 170.979,289.730 175.217,291.600 177.566 C 293.470 179.914,297.520 185.033,300.600 188.942 C 303.680 192.850,308.315 198.692,310.901 201.924 C 318.587 211.532,320.837 217.749,319.223 224.923 C 318.812 226.750,317.700 232.332,317.177 235.200 C 316.996 236.190,316.571 238.530,316.232 240.400 C 315.229 245.927,315.648 251.768,317.424 257.017 C 319.390 262.827,320.943 264.246,324.895 263.839 C 326.273 263.697,327.760 263.549,328.200 263.510 C 329.189 263.421,330.000 262.663,330.000 261.829 C 330.000 261.483,330.180 261.200,330.400 261.200 C 330.626 261.200,330.800 260.067,330.800 258.600 C 330.800 257.133,330.626 256.000,330.400 256.000 C 330.180 256.000,330.000 255.651,330.000 255.224 C 330.000 254.797,329.820 254.336,329.600 254.200 C 329.380 254.064,329.200 253.513,329.200 252.976 C 329.200 252.439,329.020 252.000,328.800 252.000 C 328.580 252.000,328.400 251.021,328.400 249.824 C 328.400 248.627,328.220 247.536,328.000 247.400 C 327.780 247.264,327.600 246.623,327.600 245.976 C 327.600 245.329,327.780 244.800,328.000 244.800 C 328.220 244.800,328.400 243.821,328.400 242.624 C 328.400 241.427,328.580 240.336,328.800 240.200 C 329.020 240.064,329.200 239.153,329.200 238.176 C 329.200 237.199,329.380 236.400,329.600 236.400 C 329.820 236.400,330.000 235.500,330.000 234.400 C 330.000 233.300,330.180 232.400,330.400 232.400 C 330.620 232.400,330.800 231.500,330.800 230.400 C 330.800 229.300,330.980 228.400,331.200 228.400 C 331.453 228.400,331.600 225.608,331.600 220.824 C 331.600 216.204,331.444 213.151,331.200 213.000 C 330.980 212.864,330.800 212.133,330.800 211.376 C 330.800 210.619,330.620 210.000,330.400 210.000 C 330.180 210.000,330.000 209.561,330.000 209.024 C 330.000 208.487,329.820 207.936,329.600 207.800 C 329.380 207.664,329.200 207.203,329.200 206.776 C 329.200 206.349,329.020 206.000,328.800 206.000 C 328.580 206.000,328.400 205.640,328.400 205.200 C 328.400 204.760,328.220 204.400,328.000 204.400 C 327.780 204.400,327.600 204.080,327.600 203.688 C 327.600 203.297,327.240 202.717,326.800 202.400 C 326.360 202.083,326.000 201.503,326.000 201.112 C 326.000 200.720,325.853 200.400,325.674 200.400 C 324.628 200.400,323.764 196.978,324.600 196.143 C 324.930 195.813,325.200 195.196,325.200 194.771 C 325.200 194.347,325.380 194.000,325.600 194.000 C 325.820 194.000,326.000 193.640,326.000 193.200 C 326.000 192.760,326.135 192.399,326.300 192.397 C 326.706 192.393,327.600 190.414,327.600 189.520 C 327.600 189.124,327.780 188.800,328.000 188.800 C 328.220 188.800,328.400 188.271,328.400 187.624 C 328.400 186.977,328.580 186.336,328.800 186.200 C 329.020 186.064,329.200 184.973,329.200 183.776 C 329.200 182.579,329.380 181.600,329.600 181.600 C 330.133 181.600,330.133 172.929,329.600 172.600 C 329.365 172.455,329.200 170.129,329.200 166.976 C 329.200 163.659,329.047 161.600,328.800 161.600 C 328.550 161.600,328.400 159.200,328.400 155.200 C 328.400 151.200,328.550 148.800,328.800 148.800 C 329.020 148.800,329.200 148.181,329.200 147.424 C 329.200 146.667,329.380 145.936,329.600 145.800 C 329.820 145.664,330.000 145.203,330.000 144.776 C 330.000 144.349,330.180 144.000,330.400 144.000 C 330.620 144.000,330.800 143.680,330.800 143.288 C 330.800 142.897,331.160 142.317,331.600 142.000 C 332.040 141.683,332.400 141.292,332.400 141.132 C 332.400 140.779,339.831 133.050,345.547 127.457 C 347.828 125.226,351.698 121.350,354.147 118.844 C 356.596 116.338,360.471 112.468,362.757 110.244 C 365.044 108.020,368.734 104.335,370.957 102.055 C 373.181 99.775,376.865 96.085,379.145 93.855 C 381.425 91.625,385.115 87.938,387.345 85.663 C 389.575 83.387,393.335 79.580,395.700 77.203 L 400.000 72.879 400.000 69.030 L 400.000 65.181 396.500 61.801 C 394.575 59.943,392.665 58.077,392.255 57.656 C 391.845 57.235,388.180 53.560,384.110 49.490 C 380.040 45.420,376.325 41.704,375.855 41.231 C 375.385 40.758,371.490 36.864,367.200 32.577 C 362.910 28.289,359.272 24.651,359.116 24.491 C 350.056 15.219,344.289 9.600,343.832 9.600 C 343.510 9.600,343.136 9.420,343.000 9.200 C 342.662 8.653,338.546 8.694,337.499 9.254 C 336.302 9.895,338.685 7.557,302.896 43.200 C 268.563 77.392,268.349 77.600,267.397 77.600 C 267.069 77.600,266.799 77.735,266.797 77.900 C 266.793 78.259,264.856 79.200,264.120 79.200 C 263.834 79.200,263.600 79.380,263.600 79.600 C 263.600 79.820,262.981 80.000,262.224 80.000 C 261.467 80.000,260.736 80.180,260.600 80.400 C 260.277 80.922,252.923 80.922,252.600 80.400 C 252.464 80.180,251.564 80.000,250.600 80.000 C 249.636 80.000,248.736 79.820,248.600 79.600 C 248.464 79.380,247.553 79.200,246.576 79.200 C 245.599 79.200,244.800 79.020,244.800 78.800 C 244.800 78.580,243.936 78.400,242.880 78.400 C 241.824 78.400,240.789 78.237,240.580 78.037 C 239.741 77.235,226.400 76.425,226.400 77.176 C 226.400 77.418,225.541 77.600,224.400 77.600 C 223.300 77.600,222.400 77.780,222.400 78.000 C 222.400 78.220,221.871 78.400,221.224 78.400 C 220.577 78.400,219.936 78.580,219.800 78.800 C 219.664 79.020,219.113 79.200,218.576 79.200 C 218.039 79.200,217.600 79.380,217.600 79.600 C 217.600 79.820,217.240 80.000,216.800 80.000 C 216.360 80.000,216.000 80.180,216.000 80.400 C 216.000 80.620,215.640 80.800,215.200 80.800 C 214.760 80.800,214.400 80.980,214.400 81.200 C 214.400 81.420,214.164 81.600,213.875 81.600 C 213.587 81.600,212.964 81.960,212.492 82.400 C 212.020 82.840,211.473 83.200,211.276 83.200 C 210.779 83.200,208.400 85.519,208.400 86.003 C 208.400 86.222,208.144 86.400,207.831 86.400 C 207.517 86.400,206.017 87.615,204.496 89.100 C 200.946 92.565,200.276 92.965,199.122 92.303 C 198.639 92.027,197.028 90.585,195.541 89.100 C 194.055 87.615,192.560 86.400,192.219 86.400 C 191.879 86.400,191.600 86.222,191.600 86.003 C 191.600 85.468,189.196 83.200,188.629 83.200 C 188.380 83.200,187.917 82.840,187.600 82.400 C 187.283 81.960,186.703 81.600,186.312 81.600 C 185.920 81.600,185.600 81.420,185.600 81.200 C 185.600 80.980,185.240 80.800,184.800 80.800 C 184.360 80.800,184.000 80.620,184.000 80.400 C 184.000 80.180,183.640 80.000,183.200 80.000 C 182.760 80.000,182.400 79.820,182.400 79.600 C 182.400 79.380,181.961 79.200,181.424 79.200 C 180.887 79.200,180.336 79.020,180.200 78.800 C 180.064 78.580,179.423 78.400,178.776 78.400 C 178.129 78.400,177.600 78.220,177.600 78.000 C 177.600 77.780,176.700 77.600,175.600 77.600 C 174.459 77.600,173.600 77.418,173.600 77.176 C 173.600 76.425,160.259 77.235,159.420 78.037 C 159.211 78.237,158.277 78.400,157.344 78.400 C 156.411 78.400,155.536 78.580,155.400 78.800 C 155.264 79.020,154.263 79.200,153.176 79.200 C 152.089 79.200,151.200 79.380,151.200 79.600 C 151.200 79.820,150.401 80.000,149.424 80.000 C 148.447 80.000,147.536 80.180,147.400 80.400 C 147.077 80.922,139.723 80.922,139.400 80.400 C 139.264 80.180,138.533 80.000,137.776 80.000 C 137.019 80.000,136.400 79.820,136.400 79.600 C 136.400 79.380,136.040 79.200,135.600 79.200 C 135.160 79.200,134.800 79.020,134.800 78.800 C 134.800 78.580,134.440 78.400,134.000 78.400 C 133.560 78.400,133.200 78.220,133.200 78.000 C 133.200 77.780,132.931 77.600,132.603 77.600 C 131.677 77.600,131.812 77.731,97.177 43.200 C 63.201 9.327,63.881 9.993,62.501 9.254 C 61.453 8.693,56.800 8.649,56.800 9.200 M76.402 40.602 L 93.000 57.205 70.297 79.898 L 47.594 102.591 30.997 85.997 C 21.869 76.871,14.400 69.273,14.400 69.114 C 14.400 68.766,59.213 24.000,59.561 24.000 C 59.694 24.000,67.273 31.471,76.402 40.602 M355.512 38.869 C 363.590 46.932,373.699 57.045,377.975 61.343 L 385.750 69.158 369.375 85.573 C 360.369 94.602,352.792 101.991,352.538 101.994 C 352.284 101.997,341.934 91.935,329.538 79.634 L 307.000 57.267 323.595 40.632 C 332.722 31.483,340.333 24.044,340.507 24.102 C 340.682 24.161,347.434 30.805,355.512 38.869 M112.884 76.627 C 130.558 94.157,135.233 95.676,157.700 91.190 C 171.013 88.531,176.661 89.344,183.058 94.837 C 187.696 98.819,190.800 101.762,190.800 102.176 C 190.800 103.519,188.079 104.450,186.495 103.649 C 177.719 99.216,164.618 104.373,159.778 114.166 C 158.944 115.853,158.068 117.146,157.831 117.039 C 149.419 113.258,142.421 113.522,135.757 117.869 C 126.371 123.993,123.363 136.605,129.017 146.129 C 130.844 149.205,131.118 148.618,125.088 154.563 C 118.567 160.993,118.000 161.761,118.000 164.167 C 118.000 168.377,121.926 171.073,125.871 169.573 C 126.489 169.338,129.652 166.510,132.900 163.288 L 138.805 157.430 141.202 159.802 C 143.821 162.394,144.072 162.995,142.681 163.344 C 134.945 165.286,127.531 179.089,129.953 187.040 C 130.148 187.678,130.544 189.010,130.835 190.000 C 131.352 191.764,132.345 193.809,133.455 195.400 C 133.762 195.840,138.711 200.910,144.452 206.666 C 150.193 212.422,154.790 217.293,154.667 217.491 C 154.545 217.689,153.586 218.290,152.536 218.826 C 144.482 222.938,140.381 233.646,143.408 242.663 C 144.891 247.080,144.406 246.540,169.553 271.791 C 182.339 284.629,192.800 295.299,192.800 295.500 C 192.800 295.702,191.059 297.472,188.931 299.434 C 186.803 301.395,184.418 303.597,183.631 304.327 C 178.182 309.382,169.878 311.533,162.800 309.725 C 161.810 309.472,160.010 309.071,158.800 308.835 C 157.590 308.598,154.800 308.042,152.600 307.598 C 142.549 305.570,134.701 306.460,127.317 310.465 C 123.427 312.576,122.941 313.000,111.916 323.937 L 101.232 334.535 78.816 312.173 C 66.487 299.875,56.400 289.557,56.400 289.246 C 56.400 288.935,60.834 284.253,66.254 278.840 C 80.304 264.809,82.167 261.932,83.838 251.677 C 84.502 247.603,84.531 248.527,83.199 231.492 C 81.893 214.784,82.159 214.184,97.977 198.230 C 110.500 185.599,110.740 185.273,109.908 181.999 C 109.452 180.199,107.760 178.619,105.637 178.011 C 103.060 177.272,101.710 178.141,94.581 185.126 C 87.077 192.478,87.536 192.310,85.396 188.481 C 82.948 184.101,82.320 180.213,82.806 172.449 C 82.994 169.452,83.359 163.704,83.616 159.676 C 84.684 142.954,82.478 137.663,68.626 123.727 C 64.432 119.507,59.833 114.870,58.406 113.422 L 55.813 110.790 78.406 88.188 C 90.833 75.757,101.218 65.634,101.484 65.693 C 101.750 65.752,106.880 70.672,112.884 76.627 M321.592 88.192 L 344.181 110.783 333.957 121.092 C 316.599 138.593,315.244 141.618,316.385 160.302 C 317.393 176.800,317.392 180.768,316.381 183.973 C 314.825 188.903,316.939 190.886,297.874 166.608 C 293.213 160.672,288.314 154.716,286.986 153.372 C 275.845 142.095,256.047 146.068,249.920 160.811 C 249.465 161.905,248.934 162.800,248.739 162.800 C 248.256 162.800,198.000 112.515,198.000 112.032 C 198.000 111.821,200.835 109.164,204.300 106.128 C 207.765 103.092,210.795 100.426,211.034 100.204 C 222.994 89.085,226.308 88.109,241.800 91.144 C 265.412 95.771,269.900 94.262,288.877 75.312 C 294.224 69.972,298.691 65.602,298.801 65.601 C 298.912 65.601,309.168 75.766,321.592 88.192 M369.089 313.694 C 378.170 322.765,385.600 330.371,385.600 330.595 C 385.600 331.273,340.534 376.111,340.024 375.941 C 339.763 375.854,332.089 368.319,322.972 359.196 L 306.394 342.608 329.096 319.904 C 341.582 307.417,351.973 297.200,352.187 297.200 C 352.402 297.200,360.008 304.622,369.089 313.694 M70.592 320.417 L 92.943 342.835 76.378 359.417 C 67.267 368.538,59.707 376.000,59.578 376.000 C 59.243 376.000,14.400 331.215,14.400 330.881 C 14.400 330.296,47.029 298.000,47.619 298.000 C 47.962 298.000,58.300 308.088,70.592 320.417 " stroke="none" fill="#050404" fill-rule="evenodd"></path><path id="path2" d="M323.595 40.632 L 307.000 57.267 329.538 79.634 C 341.934 91.935,352.284 101.997,352.538 101.994 C 352.792 101.991,360.369 94.602,369.375 85.573 L 385.750 69.158 377.975 61.343 C 360.351 43.630,340.804 24.201,340.507 24.102 C 340.333 24.044,332.722 31.483,323.595 40.632 M110.800 75.000 C 115.966 80.170,120.284 84.400,120.394 84.400 C 120.504 84.400,116.366 80.170,111.200 75.000 C 106.034 69.830,101.716 65.600,101.606 65.600 C 101.496 65.600,105.634 69.830,110.800 75.000 M178.100 113.876 C 178.485 113.976,179.115 113.976,179.500 113.876 C 179.885 113.775,179.570 113.693,178.800 113.693 C 178.030 113.693,177.715 113.775,178.100 113.876 M146.100 114.287 C 146.705 114.378,147.695 114.378,148.300 114.287 C 148.905 114.195,148.410 114.120,147.200 114.120 C 145.990 114.120,145.495 114.195,146.100 114.287 M132.000 120.600 C 131.028 121.590,130.323 122.400,130.433 122.400 C 130.543 122.400,131.428 121.590,132.400 120.600 C 133.372 119.610,134.077 118.800,133.967 118.800 C 133.857 118.800,132.972 119.610,132.000 120.600 M74.800 130.125 C 74.800 130.194,75.385 130.779,76.100 131.425 L 77.400 132.600 76.225 131.300 C 75.130 130.088,74.800 129.816,74.800 130.125 M208.800 139.800 C 209.546 140.570,210.247 141.200,210.357 141.200 C 210.467 141.200,209.946 140.570,209.200 139.800 C 208.454 139.030,207.753 138.400,207.643 138.400 C 207.533 138.400,208.054 139.030,208.800 139.800 M141.983 144.100 C 143.641 145.866,144.000 146.184,144.000 145.883 C 144.000 145.819,143.145 144.964,142.100 143.983 L 140.200 142.200 141.983 144.100 M84.120 153.200 C 84.120 154.410,84.195 154.905,84.287 154.300 C 84.378 153.695,84.378 152.705,84.287 152.100 C 84.195 151.495,84.120 151.990,84.120 153.200 M195.800 154.000 C 196.883 155.100,197.860 156.000,197.970 156.000 C 198.080 156.000,197.283 155.100,196.200 154.000 C 195.117 152.900,194.140 152.000,194.030 152.000 C 193.920 152.000,194.717 152.900,195.800 154.000 M83.693 158.000 C 83.693 158.770,83.775 159.085,83.876 158.700 C 83.976 158.315,83.976 157.685,83.876 157.300 C 83.775 156.915,83.693 157.230,83.693 158.000 M158.200 160.400 C 159.283 161.500,160.260 162.400,160.370 162.400 C 160.480 162.400,159.683 161.500,158.600 160.400 C 157.517 159.300,156.540 158.400,156.430 158.400 C 156.320 158.400,157.117 159.300,158.200 160.400 M83.301 165.400 C 83.305 166.280,83.387 166.593,83.483 166.095 C 83.579 165.598,83.575 164.878,83.475 164.495 C 83.375 164.113,83.296 164.520,83.301 165.400 M82.893 169.600 C 82.893 170.370,82.975 170.685,83.076 170.300 C 83.176 169.915,83.176 169.285,83.076 168.900 C 82.975 168.515,82.893 168.830,82.893 169.600 M214.800 172.925 C 214.800 172.994,215.385 173.579,216.100 174.225 L 217.400 175.400 216.225 174.100 C 215.130 172.888,214.800 172.616,214.800 172.925 M150.305 173.483 C 150.802 173.579,151.522 173.575,151.905 173.475 C 152.287 173.375,151.880 173.296,151.000 173.301 C 150.120 173.305,149.807 173.387,150.305 173.483 M156.800 175.310 C 156.800 175.371,158.195 176.766,159.900 178.410 L 163.000 181.400 160.010 178.300 C 157.233 175.421,156.800 175.017,156.800 175.310 M82.501 177.400 C 82.505 178.280,82.587 178.593,82.683 178.095 C 82.779 177.598,82.775 176.878,82.675 176.495 C 82.575 176.113,82.496 176.520,82.501 177.400 M96.992 182.500 L 93.400 186.200 97.100 182.608 C 99.135 180.633,100.800 178.968,100.800 178.908 C 100.800 178.618,100.328 179.064,96.992 182.500 M141.301 183.000 C 141.305 183.880,141.387 184.193,141.483 183.695 C 141.579 183.198,141.575 182.478,141.475 182.095 C 141.375 181.713,141.296 182.120,141.301 183.000 M173.800 192.400 C 175.771 194.380,177.473 196.000,177.583 196.000 C 177.693 196.000,176.171 194.380,174.200 192.400 C 172.229 190.420,170.527 188.800,170.417 188.800 C 170.307 188.800,171.829 190.420,173.800 192.400 M245.600 203.800 C 246.795 205.010,247.863 206.000,247.973 206.000 C 248.083 206.000,247.195 205.010,246.000 203.800 C 244.805 202.590,243.737 201.600,243.627 201.600 C 243.517 201.600,244.405 202.590,245.600 203.800 M191.800 210.400 C 193.328 211.940,194.669 213.200,194.779 213.200 C 194.889 213.200,193.728 211.940,192.200 210.400 C 190.672 208.860,189.331 207.600,189.221 207.600 C 189.111 207.600,190.272 208.860,191.800 210.400 M237.583 212.500 C 239.241 214.266,239.600 214.584,239.600 214.283 C 239.600 214.219,238.745 213.364,237.700 212.383 L 235.800 210.600 237.583 212.500 M208.600 227.200 C 210.792 229.400,212.675 231.200,212.785 231.200 C 212.895 231.200,211.192 229.400,209.000 227.200 C 206.808 225.000,204.925 223.200,204.815 223.200 C 204.705 223.200,206.408 225.000,208.600 227.200 M30.698 314.302 C 21.734 323.268,14.400 330.728,14.400 330.881 C 14.400 331.215,59.243 376.000,59.578 376.000 C 59.707 376.000,67.267 368.538,76.378 359.417 L 92.943 342.835 70.592 320.417 C 58.300 308.088,47.962 298.000,47.619 298.000 C 47.277 298.000,39.662 305.336,30.698 314.302 M250.500 306.276 C 250.885 306.376,251.515 306.376,251.900 306.276 C 252.285 306.175,251.970 306.093,251.200 306.093 C 250.430 306.093,250.115 306.175,250.500 306.276 M238.305 307.083 C 238.802 307.179,239.522 307.175,239.905 307.075 C 240.287 306.975,239.880 306.896,239.000 306.901 C 238.120 306.905,237.807 306.987,238.305 307.083 M230.100 307.487 C 230.705 307.578,231.695 307.578,232.300 307.487 C 232.905 307.395,232.410 307.320,231.200 307.320 C 229.990 307.320,229.495 307.395,230.100 307.487 M279.200 315.800 C 279.946 316.570,280.647 317.200,280.757 317.200 C 280.867 317.200,280.346 316.570,279.600 315.800 C 278.854 315.030,278.153 314.400,278.043 314.400 C 277.933 314.400,278.454 315.030,279.200 315.800 M291.000 327.600 C 292.971 329.580,294.673 331.200,294.783 331.200 C 294.893 331.200,293.371 329.580,291.400 327.600 C 289.429 325.620,287.727 324.000,287.617 324.000 C 287.507 324.000,289.029 325.620,291.000 327.600 " stroke="none" fill="#46b0ad" fill-rule="evenodd"></path><path id="path3" d="M329.096 319.904 L 306.394 342.608 322.972 359.196 C 332.089 368.319,339.763 375.854,340.024 375.941 C 340.534 376.111,385.600 331.273,385.600 330.595 C 385.600 330.073,352.709 297.200,352.187 297.200 C 351.973 297.200,341.582 307.417,329.096 319.904 " stroke="none" fill="#f247aa" fill-rule="evenodd"></path><path id="path4" d="M36.872 46.442 C 24.512 58.785,14.400 69.001,14.400 69.144 C 14.400 69.287,21.869 76.871,30.997 85.997 L 47.594 102.591 70.297 79.898 L 93.000 57.205 76.402 40.602 C 67.273 31.471,59.700 24.000,59.573 24.000 C 59.447 24.000,49.231 34.099,36.872 46.442 M94.201 72.399 C 90.465 76.140,87.544 79.200,87.710 79.200 C 87.875 79.200,89.697 77.535,91.758 75.500 C 93.820 73.465,96.804 70.561,98.389 69.047 L 101.272 66.294 103.896 68.847 C 105.340 70.251,109.959 74.837,114.161 79.037 C 121.128 86.002,125.991 90.000,127.497 90.000 C 127.773 90.000,128.000 90.180,128.000 90.400 C 128.000 90.620,128.272 90.800,128.605 90.800 C 128.938 90.800,129.568 90.980,130.005 91.200 C 130.442 91.420,131.158 91.780,131.595 92.000 C 132.032 92.220,132.797 92.397,133.295 92.393 C 133.793 92.390,132.729 91.790,130.932 91.061 C 125.230 88.748,122.877 86.890,111.876 76.010 C 106.197 70.395,101.426 65.755,101.272 65.699 C 101.119 65.643,97.937 68.658,94.201 72.399 M288.877 75.312 C 269.905 94.257,265.285 95.816,241.929 91.156 C 230.582 88.892,225.993 89.184,220.276 92.534 C 218.778 93.412,217.197 94.715,212.000 99.355 C 211.230 100.042,207.765 103.089,204.300 106.126 C 200.835 109.163,198.000 111.821,198.000 112.032 C 198.000 112.496,248.253 162.807,248.692 162.783 C 248.862 162.774,249.719 161.289,250.597 159.483 C 254.919 150.599,267.026 144.590,275.440 147.153 C 276.078 147.348,277.410 147.744,278.400 148.035 C 284.266 149.756,285.343 150.793,298.307 167.206 C 317.164 191.080,314.823 188.908,316.381 183.973 C 317.392 180.768,317.393 176.800,316.385 160.302 C 315.244 141.618,316.599 138.593,333.957 121.092 L 344.181 110.783 321.592 88.192 C 309.168 75.766,298.912 65.601,298.801 65.601 C 298.691 65.602,294.224 69.972,288.877 75.312 M85.600 81.000 C 84.854 81.770,84.353 82.400,84.487 82.400 C 84.621 82.400,85.380 81.770,86.173 81.000 C 86.966 80.230,87.467 79.600,87.286 79.600 C 87.105 79.600,86.346 80.230,85.600 81.000 M81.610 84.990 C 80.420 86.195,79.526 87.241,79.623 87.316 C 79.721 87.391,80.827 86.405,82.081 85.126 C 83.336 83.847,84.230 82.800,84.068 82.800 C 83.905 82.800,82.799 83.786,81.610 84.990 M74.587 92.013 C 72.182 94.426,70.348 96.400,70.511 96.400 C 70.909 96.400,79.315 87.981,79.116 87.782 C 79.030 87.697,76.992 89.601,74.587 92.013 M167.100 89.893 C 168.035 89.977,169.565 89.977,170.500 89.893 C 171.435 89.809,170.670 89.740,168.800 89.740 C 166.930 89.740,166.165 89.809,167.100 89.893 M160.000 90.757 C 157.380 91.318,157.188 91.416,158.483 91.523 C 159.299 91.591,160.322 91.456,160.757 91.223 C 161.192 90.990,162.144 90.797,162.874 90.794 C 163.603 90.791,164.470 90.613,164.800 90.400 C 165.687 89.826,163.620 89.980,160.000 90.757 M172.600 90.400 C 172.736 90.620,173.422 90.787,174.124 90.772 C 175.200 90.748,175.274 90.690,174.600 90.400 C 173.484 89.920,172.304 89.920,172.600 90.400 M175.600 91.200 C 175.600 91.420,176.005 91.597,176.500 91.594 C 177.228 91.589,177.285 91.514,176.800 91.200 C 176.024 90.699,175.600 90.699,175.600 91.200 M151.800 92.400 C 148.735 93.083,148.679 93.115,150.476 93.156 C 151.508 93.180,152.464 93.020,152.600 92.800 C 152.736 92.580,153.636 92.400,154.600 92.400 C 155.564 92.400,156.464 92.220,156.600 92.000 C 156.942 91.446,155.567 91.561,151.800 92.400 M177.600 91.902 C 177.600 92.069,178.185 92.463,178.900 92.778 C 179.615 93.093,180.405 93.542,180.655 93.775 C 180.906 94.009,181.536 94.544,182.055 94.965 C 184.016 96.553,188.628 100.625,189.313 101.373 C 190.338 102.493,188.957 103.994,187.514 103.329 C 184.404 101.894,182.410 101.472,178.800 101.483 C 173.856 101.498,169.080 103.288,164.931 106.681 C 163.286 108.026,160.000 111.968,160.000 112.597 C 160.000 112.775,160.514 112.210,161.143 111.342 C 166.777 103.564,177.377 100.018,185.594 103.161 C 188.370 104.222,188.861 104.212,189.930 103.074 C 191.089 101.841,191.333 102.211,186.628 98.063 C 181.215 93.289,177.600 90.822,177.600 91.902 M134.400 92.782 C 134.400 93.012,135.150 93.200,136.067 93.200 C 138.032 93.200,137.976 93.010,135.900 92.635 C 134.950 92.463,134.400 92.517,134.400 92.782 M138.246 93.674 C 138.502 94.089,147.888 94.105,148.144 93.691 C 148.249 93.521,146.019 93.375,143.190 93.365 C 140.360 93.356,138.135 93.495,138.246 93.674 M60.600 106.000 C 58.188 108.420,56.348 110.400,56.512 110.400 C 56.803 110.400,63.660 103.645,64.749 102.286 C 66.010 100.711,64.733 101.855,60.600 106.000 M56.400 111.166 C 56.400 111.298,60.853 115.815,66.296 121.203 C 71.739 126.591,74.934 129.673,73.396 128.052 C 69.013 123.430,56.400 110.899,56.400 111.166 M142.200 114.400 L 141.400 114.744 142.200 114.725 C 142.640 114.714,143.540 114.568,144.200 114.400 L 145.400 114.095 144.200 114.075 C 143.540 114.065,142.640 114.211,142.200 114.400 M149.233 114.144 C 149.325 114.224,150.210 114.396,151.200 114.527 C 152.402 114.686,152.734 114.647,152.200 114.410 C 151.436 114.072,148.886 113.843,149.233 114.144 M174.363 114.930 C 169.947 117.261,167.958 123.265,170.179 127.560 C 170.521 128.221,188.420 146.378,209.953 167.908 C 246.685 204.635,249.122 207.157,249.386 208.718 C 250.151 213.243,246.871 216.555,242.378 215.796 C 240.894 215.546,237.517 212.260,197.087 171.725 C 173.059 147.635,152.860 127.667,152.200 127.353 L 151.000 126.782 152.000 127.491 C 152.550 127.881,172.710 147.930,196.800 172.044 C 232.707 207.987,240.865 215.962,242.068 216.297 C 246.492 217.528,250.690 213.303,249.816 208.500 C 249.573 207.168,245.125 202.573,210.028 167.400 C 172.962 130.254,170.481 127.682,170.004 125.898 C 167.964 118.275,175.932 111.708,182.916 115.256 C 184.972 116.300,250.784 181.977,254.007 186.200 C 255.182 187.740,256.255 189.090,256.391 189.200 C 256.527 189.310,257.074 190.030,257.606 190.800 C 258.698 192.380,259.437 193.200,259.767 193.200 C 262.015 193.200,187.271 116.884,182.974 114.792 C 180.616 113.644,176.681 113.707,174.363 114.930 M139.600 115.200 C 139.067 115.545,139.067 115.588,139.600 115.588 C 139.930 115.588,140.470 115.413,140.800 115.200 C 141.333 114.855,141.333 114.812,140.800 114.812 C 140.470 114.812,139.930 114.987,139.600 115.200 M158.507 115.632 C 158.293 116.454,158.115 116.468,156.200 115.820 C 155.760 115.671,155.910 115.844,156.533 116.205 C 157.156 116.565,157.896 116.772,158.178 116.664 C 158.667 116.476,159.339 114.800,158.925 114.800 C 158.815 114.800,158.627 115.175,158.507 115.632 M135.169 117.575 C 134.196 118.222,132.680 119.521,131.800 120.462 L 130.200 122.173 132.200 120.374 C 133.300 119.384,134.875 118.161,135.700 117.655 C 137.013 116.849,137.503 116.400,137.069 116.400 C 136.996 116.400,136.141 116.929,135.169 117.575 M144.658 126.348 C 144.250 126.509,145.484 126.640,147.400 126.640 C 149.316 126.640,150.550 126.509,150.142 126.348 C 149.734 126.188,148.500 126.056,147.400 126.056 C 146.300 126.056,145.066 126.188,144.658 126.348 M141.175 128.270 C 139.582 129.709,138.149 131.882,138.536 132.270 C 138.644 132.377,139.042 131.810,139.422 131.010 C 139.802 130.210,140.762 129.080,141.556 128.499 C 143.654 126.966,143.823 126.800,143.281 126.800 C 143.018 126.800,142.070 127.461,141.175 128.270 M126.667 128.667 C 126.520 128.813,126.411 129.308,126.425 129.767 C 126.449 130.533,126.482 130.523,126.834 129.642 C 127.226 128.663,127.144 128.189,126.667 128.667 M125.843 131.833 C 125.500 132.725,125.552 138.905,125.906 139.462 C 126.068 139.716,126.200 137.961,126.200 135.562 C 126.200 133.163,126.174 131.200,126.143 131.200 C 126.111 131.200,125.976 131.485,125.843 131.833 M77.202 132.128 C 77.201 132.308,77.745 133.248,78.411 134.216 C 79.998 136.523,82.220 141.306,82.823 143.715 C 83.087 144.769,83.386 145.547,83.488 145.445 C 83.835 145.099,82.340 140.660,80.989 138.024 C 79.571 135.256,77.205 131.572,77.202 132.128 M137.842 134.100 C 137.660 134.925,137.660 136.275,137.842 137.100 L 138.173 138.600 138.311 137.100 C 138.386 136.275,138.386 134.925,138.311 134.100 L 138.173 132.600 137.842 134.100 M139.608 141.200 C 139.797 141.530,159.532 161.330,183.463 185.200 C 207.395 209.070,226.441 227.983,225.787 227.229 C 223.933 225.089,139.222 140.525,139.608 141.200 M126.428 141.476 C 126.413 141.958,126.580 142.464,126.800 142.600 C 127.273 142.892,127.273 142.501,126.800 141.400 C 126.469 140.629,126.455 140.631,126.428 141.476 M128.008 145.308 C 128.003 145.477,128.466 146.354,129.035 147.256 L 130.071 148.896 124.035 154.977 C 120.716 158.322,118.000 161.210,118.000 161.396 C 118.000 161.581,118.045 161.658,118.100 161.565 C 118.155 161.473,120.960 158.586,124.333 155.150 L 130.465 148.902 129.240 146.951 C 128.566 145.878,128.012 145.139,128.008 145.308 M83.677 146.800 C 83.667 147.350,83.803 148.610,83.980 149.600 L 84.300 151.400 84.303 149.800 C 84.304 148.920,84.168 147.660,84.000 147.000 C 83.723 145.913,83.693 145.894,83.677 146.800 M83.799 159.274 C 83.645 161.543,83.588 163.850,83.673 164.400 C 83.758 164.950,83.969 163.177,84.140 160.460 C 84.312 157.743,84.369 155.436,84.267 155.333 C 84.164 155.231,83.954 157.004,83.799 159.274 M132.584 163.573 C 125.183 170.904,122.920 171.694,119.399 168.172 C 118.152 166.925,118.058 166.889,118.479 167.815 C 119.157 169.302,109.331 179.324,108.007 178.497 C 106.655 177.653,106.709 177.945,108.137 179.198 C 109.818 180.674,110.509 182.973,109.916 185.119 C 109.593 186.291,107.098 189.030,97.977 198.230 C 82.159 214.184,81.893 214.784,83.199 231.492 C 84.531 248.527,84.502 247.603,83.838 251.677 C 82.167 261.932,80.304 264.809,66.254 278.840 C 60.834 284.253,56.400 288.935,56.400 289.246 C 56.400 289.557,66.487 299.875,78.816 312.173 L 101.232 334.535 111.916 323.937 C 122.941 313.000,123.427 312.576,127.317 310.465 C 134.701 306.460,142.549 305.570,152.600 307.598 C 154.800 308.042,157.590 308.598,158.800 308.835 C 160.010 309.071,161.810 309.472,162.800 309.725 C 169.878 311.533,178.182 309.382,183.631 304.327 C 184.418 303.597,186.803 301.395,188.931 299.434 C 191.059 297.472,192.800 295.702,192.800 295.500 C 192.800 295.299,182.339 284.629,169.553 271.791 C 144.406 246.540,144.891 247.080,143.408 242.663 C 140.381 233.646,144.482 222.938,152.536 218.826 C 153.586 218.290,154.545 217.689,154.667 217.491 C 154.790 217.293,150.193 212.422,144.452 206.666 C 138.711 200.910,133.762 195.840,133.455 195.400 C 132.345 193.809,131.352 191.764,130.835 190.000 C 130.544 189.010,130.148 187.678,129.953 187.040 C 127.531 179.089,134.945 165.286,142.681 163.344 C 144.064 162.997,143.822 162.394,141.288 159.887 C 138.456 157.084,139.643 156.581,132.584 163.573 M267.636 159.056 C 264.111 160.290,261.370 162.862,260.655 165.605 L 260.396 166.600 260.879 165.600 C 261.560 164.192,265.421 160.400,266.174 160.400 C 266.518 160.400,266.800 160.220,266.800 160.000 C 266.800 159.780,267.340 159.600,268.000 159.600 C 268.660 159.600,269.200 159.420,269.200 159.200 C 269.200 158.980,270.010 158.800,271.000 158.800 C 271.990 158.800,272.800 158.980,272.800 159.200 C 272.800 159.420,273.430 159.600,274.200 159.600 C 274.970 159.600,275.600 159.780,275.600 160.000 C 275.600 160.220,275.825 160.400,276.100 160.400 C 276.926 160.401,278.521 162.020,281.027 165.400 C 282.332 167.160,283.628 168.841,283.906 169.135 C 284.184 169.429,284.902 170.329,285.502 171.135 C 286.101 171.941,286.872 172.870,287.215 173.200 C 287.557 173.530,288.271 174.430,288.800 175.200 C 289.329 175.970,290.049 176.870,290.400 177.200 C 290.751 177.530,291.471 178.430,292.000 179.200 C 292.529 179.970,293.065 180.690,293.192 180.800 C 293.319 180.910,294.669 182.620,296.192 184.600 C 297.715 186.580,299.069 188.290,299.200 188.400 C 299.331 188.510,299.871 189.230,300.400 190.000 C 300.929 190.770,301.649 191.670,302.000 192.000 C 302.351 192.330,303.071 193.230,303.600 194.000 C 304.129 194.770,304.849 195.670,305.200 196.000 C 305.551 196.330,306.271 197.230,306.800 198.000 C 307.329 198.770,308.049 199.670,308.400 200.000 C 308.751 200.330,309.477 201.230,310.013 202.000 C 311.050 203.488,311.072 203.517,313.587 206.600 C 316.717 210.436,318.808 215.914,318.855 220.400 C 318.878 222.642,318.269 227.200,317.946 227.200 C 317.756 227.200,317.600 227.974,317.600 228.920 C 317.600 229.866,317.437 230.811,317.239 231.020 C 317.040 231.229,316.781 232.210,316.662 233.200 C 316.544 234.190,316.244 235.990,315.995 237.200 C 314.766 243.191,315.053 255.367,316.444 256.227 C 316.640 256.348,316.800 256.876,316.800 257.400 C 316.800 257.924,316.980 258.464,317.200 258.600 C 317.420 258.736,317.600 259.197,317.600 259.624 C 317.600 260.051,317.780 260.400,318.000 260.400 C 318.220 260.400,318.400 260.688,318.400 261.040 C 318.400 263.124,324.820 266.386,325.800 264.800 C 325.936 264.580,326.397 264.400,326.824 264.400 C 327.251 264.400,327.600 264.217,327.600 263.992 C 327.600 263.627,326.485 263.726,324.857 264.237 C 323.879 264.545,321.228 263.592,320.200 262.564 C 316.951 259.315,314.642 247.400,316.007 240.931 C 319.459 224.576,319.988 220.554,319.194 216.697 C 318.088 211.322,317.187 209.927,304.539 194.000 C 293.225 179.752,282.096 165.653,280.614 163.690 C 277.203 159.172,272.302 157.422,267.636 159.056 M117.437 163.344 C 117.298 164.084,117.342 165.115,117.535 165.636 C 117.805 166.367,117.886 166.059,117.886 164.292 C 117.886 161.658,117.791 161.457,117.437 163.344 M82.991 170.999 C 82.611 176.567,82.926 182.162,83.750 184.480 C 84.587 186.835,86.843 190.800,87.346 190.800 C 87.554 190.800,87.446 190.485,87.107 190.100 C 84.133 186.726,83.023 181.862,83.322 173.518 C 83.594 165.959,83.423 164.659,82.991 170.999 M259.829 168.700 C 259.694 169.745,259.752 171.140,259.957 171.800 C 260.264 172.785,260.337 172.444,260.366 169.900 C 260.405 166.382,260.191 165.904,259.829 168.700 M260.627 174.000 C 260.767 174.550,262.725 177.430,264.978 180.400 C 269.517 186.386,270.008 187.173,270.461 189.200 C 270.759 190.535,270.767 190.521,270.626 188.905 C 270.455 186.950,268.203 183.543,262.493 176.600 C 262.131 176.160,261.505 175.170,261.103 174.400 C 260.585 173.408,260.446 173.291,260.627 174.000 M148.000 174.000 C 147.503 174.321,147.538 174.388,148.200 174.388 C 148.640 174.388,149.270 174.213,149.600 174.000 C 150.097 173.679,150.062 173.612,149.400 173.612 C 148.960 173.612,148.330 173.787,148.000 174.000 M153.200 174.075 C 155.057 174.856,156.199 175.398,156.417 175.599 C 156.536 175.710,170.579 189.705,187.623 206.700 C 204.667 223.695,218.879 237.595,219.206 237.588 C 219.617 237.579,219.554 237.436,219.000 237.121 C 218.560 236.871,204.340 222.812,187.400 205.879 C 157.535 176.026,154.901 173.572,152.800 173.636 C 152.470 173.646,152.650 173.844,153.200 174.075 M144.196 176.404 C 143.566 177.062,143.182 177.600,143.343 177.600 C 143.756 177.600,145.722 175.588,145.513 175.380 C 145.419 175.286,144.826 175.746,144.196 176.404 M102.538 177.506 C 102.284 177.668,103.032 177.800,104.200 177.800 C 105.368 177.800,106.240 177.665,106.138 177.500 C 105.900 177.115,103.145 177.120,102.538 177.506 M142.184 179.376 C 141.840 180.200,141.635 181.083,141.730 181.337 C 141.824 181.592,142.038 181.260,142.206 180.600 C 142.373 179.940,142.691 179.171,142.912 178.890 C 143.133 178.610,143.201 178.267,143.062 178.129 C 142.924 177.990,142.529 178.552,142.184 179.376 M93.995 185.100 L 87.800 191.400 94.100 185.205 C 97.565 181.798,100.400 178.963,100.400 178.905 C 100.400 178.619,99.751 179.247,93.995 185.100 M141.634 184.800 C 141.646 185.130,141.811 185.760,142.000 186.200 L 142.344 187.000 142.366 186.200 C 142.378 185.760,142.213 185.130,142.000 184.800 C 141.655 184.267,141.615 184.267,141.634 184.800 M143.077 188.424 C 143.475 189.097,146.140 191.964,149.000 194.793 C 151.860 197.623,165.765 211.523,179.900 225.683 C 194.035 239.842,205.600 251.262,205.600 251.061 C 205.600 250.860,191.560 236.651,174.400 219.485 C 157.240 202.319,143.200 188.032,143.200 187.737 C 143.200 187.442,143.010 187.200,142.777 187.200 C 142.545 187.200,142.680 187.751,143.077 188.424 M269.320 192.348 C 267.782 195.042,264.286 195.981,261.690 194.399 C 260.202 193.491,259.685 193.363,260.487 194.100 C 263.461 196.833,270.400 194.951,270.400 191.411 C 270.400 190.540,270.304 190.623,269.320 192.348 M159.000 228.812 C 157.372 229.606,154.783 232.180,154.821 232.967 C 154.833 233.205,155.148 232.956,155.521 232.413 C 156.613 230.827,158.465 229.200,159.179 229.200 C 159.543 229.200,160.039 229.001,160.283 228.757 C 160.714 228.326,163.092 228.422,165.200 228.956 C 166.030 229.166,165.996 229.109,165.000 228.622 C 163.336 227.809,160.898 227.887,159.000 228.812 M227.316 230.316 C 227.928 232.609,227.360 234.754,225.737 236.285 C 224.971 237.008,224.501 237.600,224.693 237.600 C 226.291 237.600,228.966 232.198,228.075 230.772 C 227.814 230.353,227.600 229.738,227.600 229.405 C 227.600 229.072,227.445 228.800,227.256 228.800 C 227.066 228.800,227.093 229.482,227.316 230.316 M166.400 229.567 C 166.400 229.768,166.577 229.993,166.794 230.067 C 167.011 230.140,173.821 236.815,181.928 244.900 C 191.207 254.153,196.952 259.595,197.434 259.588 C 198.169 259.576,198.168 259.558,197.400 259.137 C 196.960 258.896,189.930 252.062,181.777 243.950 C 167.621 229.863,166.400 228.721,166.400 229.567 M154.243 234.233 C 153.537 236.071,154.664 240.574,156.042 241.426 C 156.332 241.605,156.143 241.042,155.622 240.176 C 154.892 238.958,154.679 238.032,154.688 236.100 C 154.700 233.468,154.637 233.204,154.243 234.233 M220.400 238.000 C 221.187 238.509,223.086 238.509,223.400 238.000 C 223.552 237.754,222.906 237.602,221.724 237.606 C 220.334 237.611,219.967 237.720,220.400 238.000 M166.389 252.182 C 171.989 257.782,176.647 262.287,176.740 262.193 C 176.962 261.971,156.992 242.000,156.548 242.000 C 156.361 242.000,160.790 246.582,166.389 252.182 M205.612 253.800 C 205.612 255.237,205.721 255.631,206.000 255.200 C 206.213 254.870,206.388 254.240,206.388 253.800 C 206.388 253.360,206.213 252.730,206.000 252.400 C 205.721 251.969,205.612 252.363,205.612 253.800 M205.034 256.705 C 204.874 257.203,204.084 258.058,203.279 258.605 C 202.473 259.152,202.048 259.600,202.334 259.600 C 203.150 259.600,205.725 256.973,205.514 256.355 C 205.388 255.984,205.229 256.100,205.034 256.705 M198.600 260.000 C 198.736 260.220,199.366 260.400,200.000 260.400 C 200.634 260.400,201.264 260.220,201.400 260.000 C 201.550 259.758,200.996 259.600,200.000 259.600 C 199.004 259.600,198.450 259.758,198.600 260.000 M177.202 262.657 C 177.205 263.132,187.163 272.970,187.401 272.732 C 187.507 272.627,185.255 270.239,182.397 267.427 C 179.538 264.615,177.201 262.469,177.202 262.657 M191.387 277.187 C 193.572 279.380,195.430 281.104,195.516 281.018 C 195.715 280.818,188.111 273.200,187.713 273.200 C 187.549 273.200,189.202 274.994,191.387 277.187 M337.305 275.121 C 336.564 276.015,336.410 276.692,336.405 279.073 L 336.400 281.945 339.643 285.220 L 342.887 288.494 339.946 291.547 C 338.328 293.226,334.756 296.895,332.008 299.700 C 329.260 302.505,327.156 304.800,327.333 304.800 C 327.821 304.800,343.600 289.089,343.600 288.603 C 343.600 288.370,342.327 286.923,340.770 285.389 C 336.588 281.266,335.824 279.005,337.621 276.058 C 338.673 274.332,338.467 273.721,337.305 275.121 M196.008 281.332 C 195.998 281.764,205.931 291.808,206.139 291.577 C 206.226 291.479,203.984 289.060,201.157 286.200 C 198.329 283.340,196.012 281.149,196.008 281.332 M207.002 292.802 C 207.402 293.244,207.811 293.522,207.912 293.421 C 208.128 293.205,206.988 292.000,206.567 292.000 C 206.407 292.000,206.603 292.361,207.002 292.802 M208.400 293.967 C 208.400 296.531,224.771 308.162,226.270 306.664 C 226.393 306.540,225.978 306.326,225.347 306.188 C 221.294 305.303,218.208 303.191,211.700 296.850 C 209.885 295.081,208.400 293.784,208.400 293.967 M251.000 305.578 C 250.340 305.758,248.000 305.940,245.800 305.982 C 243.600 306.025,240.990 306.209,240.000 306.391 C 238.945 306.585,240.600 306.614,244.000 306.461 C 251.736 306.113,259.748 306.131,262.168 306.502 C 263.251 306.668,264.013 306.680,263.863 306.529 C 263.078 305.744,253.096 305.006,251.000 305.578 M315.840 316.021 C 309.921 321.956,305.153 326.886,305.243 326.976 C 305.333 327.066,310.341 322.203,316.372 316.170 C 322.403 310.136,327.172 305.206,326.969 305.214 C 326.766 305.222,321.758 310.085,315.840 316.021 M229.282 307.096 C 230.758 307.173,233.278 307.173,234.882 307.097 C 236.487 307.021,235.280 306.958,232.200 306.958 C 229.120 306.957,227.807 307.019,229.282 307.096 M264.800 307.086 C 265.130 307.208,266.525 307.726,267.900 308.236 C 269.275 308.747,270.400 308.992,270.400 308.782 C 270.400 308.572,270.128 308.400,269.795 308.400 C 269.462 308.400,268.787 308.192,268.295 307.938 C 266.339 306.927,265.977 306.801,265.105 306.832 C 264.511 306.852,264.406 306.940,264.800 307.086 M270.800 309.347 C 270.800 309.428,272.015 310.193,273.500 311.047 C 275.562 312.233,278.761 315.129,287.033 323.300 C 292.991 329.185,297.996 334.000,298.154 334.000 C 298.566 334.000,304.800 327.772,304.800 327.360 C 304.800 327.172,303.272 328.537,301.405 330.395 L 298.011 333.772 288.163 323.986 C 282.746 318.604,277.921 313.840,277.441 313.400 C 275.349 311.486,270.800 308.710,270.800 309.347 " stroke="none" fill="#e89e5e" fill-rule="evenodd"></path></g></svg>